<?xml version="1.0" encoding="UTF-8"?>
<!DOCTYPE svg PUBLIC "-//W3C//DTD SVG 1.1//EN" "http://www.w3.org/Graphics/SVG/1.1/DTD/svg11.dtd">
<!-- Creator: CorelDRAW -->
<svg xmlns="http://www.w3.org/2000/svg" xml:space="preserve" width="42.3332mm" height="42.3332mm" version="1.1" style="shape-rendering:geometricPrecision; text-rendering:geometricPrecision; image-rendering:optimizeQuality; fill-rule:evenodd; clip-rule:evenodd"
viewBox="0 0 4233.32 4233.32"
 xmlns:xlink="http://www.w3.org/1999/xlink"
 xmlns:xodm="http://www.corel.com/coreldraw/odm/2003">
 <defs>
  <style type="text/css">
   <![CDATA[
    .fil0 {fill:black}
   ]]>
  </style>
 </defs>
 <g id="Capa_x0020_1">
  <metadata id="CorelCorpID_0Corel-Layer"/>
  <path class="fil0" d="M3564.51 1113.52l0 2449.2c0,368.88 -301.73,670.61 -670.61,670.61l-1481.68 0c-368.88,0 -670.6,-301.73 -670.6,-670.61l0 -2449.2 -180.26 0c-143.82,0 -261.41,-117.59 -261.41,-261.41 0,-143.82 117.59,-261.41 261.41,-261.41l964.58 0c0,-326.2 264.49,-590.69 590.68,-590.69 326.2,0 590.69,264.49 590.69,590.69l964.67 0c143.82,0 261.41,117.59 261.41,261.41 0,143.82 -117.59,261.41 -261.41,261.41l-107.47 0zm-857.2 20.69l0 0c120.93,0 219.78,98.84 219.78,219.78l0 1973.46c0,120.93 -98.85,219.78 -219.78,219.78l0 0c-120.94,0 -219.78,-98.85 -219.78,-219.78l0 -1973.46c0,-120.94 98.84,-219.78 219.78,-219.78zm-1181.37 0l0 0c120.94,0 219.78,98.84 219.78,219.78l0 1973.46c0,120.93 -98.84,219.78 -219.78,219.78l0 0c-120.93,0 -219.78,-98.85 -219.78,-219.78l0 -1973.46c0,-120.94 98.85,-219.78 219.78,-219.78z"/>
 </g>
</svg>
