<?xml version="1.0" encoding="UTF-8"?>
<!DOCTYPE svg PUBLIC "-//W3C//DTD SVG 1.1//EN" "http://www.w3.org/Graphics/SVG/1.1/DTD/svg11.dtd">
<!-- Creator: CorelDRAW -->
<svg xmlns="http://www.w3.org/2000/svg" xml:space="preserve" width="42.3332mm" height="42.3332mm" version="1.1" style="shape-rendering:geometricPrecision; text-rendering:geometricPrecision; image-rendering:optimizeQuality; fill-rule:evenodd; clip-rule:evenodd"
viewBox="0 0 4233.32 4233.32"
 xmlns:xlink="http://www.w3.org/1999/xlink"
 xmlns:xodm="http://www.corel.com/coreldraw/odm/2003">
 <defs>
  <style type="text/css">
   <![CDATA[
    .fil0 {fill:black;fill-rule:nonzero}
   ]]>
  </style>
 </defs>
 <g id="Capa_x0020_1">
  <metadata id="CorelCorpID_0Corel-Layer"/>
  <path class="fil0" d="M883.95 2138.75c-70.54,-70.15 -70.83,-184.35 -0.69,-254.89 70.15,-70.54 184.36,-70.83 254.89,-0.68l797.19 792.79 0 -2494.64c0,-100.14 81.19,-181.32 181.32,-181.32 100.14,0 181.33,81.18 181.33,181.32l0 2493.18 795.72 -791.33c70.54,-70.15 184.74,-69.86 254.89,0.68 70.14,70.54 69.85,184.74 -0.69,254.89l-1101.02 1094.87 -1.56 1.66 -1.57 1.56 -0.68 0.68 -2.64 2.54 -0.68 0.69 -2.74 2.54 -0.68 0.58 -2.74 2.45 -0.68 0.58 -2.83 2.35 -0.69 0.58 -2.83 2.25 -0.78 0.59 -2.83 2.15 -0.79 0.58 -2.93 2.05 -0.78 0.59 -2.93 1.95 -0.78 0.49 -2.93 1.96 -0.88 0.48 -2.93 1.86 -0.88 0.49 -3.03 1.76 -0.78 0.39 -3.13 1.66 -0.78 0.49 -3.12 1.56 -0.88 0.39 -3.13 1.56 -0.88 0.39 -3.13 1.37 -0.88 0.39 -3.12 1.37 -0.88 0.29 -3.22 1.27 -0.88 0.39 -3.23 1.18 -0.88 0.29 -3.22 1.08 -0.98 0.29 -3.22 0.98 -0.88 0.29 -3.32 0.88 -0.88 0.29 -3.32 0.88 -0.98 0.2 -3.22 0.78 -0.98 0.19 -3.32 0.69 -0.88 0.19 -3.32 0.59 -0.98 0.1 -3.32 0.58 -0.98 0.1 -3.32 0.49 -0.98 0.1 -3.32 0.39 -0.98 0.09 -3.32 0.2 -0.98 0.1 -3.32 0.19 -0.97 0.1 -3.42 0.1 -0.98 0 -3.32 0.1 -0.98 0 -3.32 -0.1 -0.98 0 -3.42 -0.1 -0.97 -0.1 -3.33 -0.19 -0.97 -0.1 -3.32 -0.2 -0.98 -0.09 -3.32 -0.39 -0.98 -0.1 -3.32 -0.49 -0.98 -0.1 -3.32 -0.58 -0.98 -0.1 -3.32 -0.59 -0.88 -0.19 -3.32 -0.69 -0.98 -0.19 -3.22 -0.78 -0.98 -0.2 -3.32 -0.88 -0.88 -0.29 -3.32 -0.88 -0.88 -0.29 -3.22 -0.98 -0.98 -0.29 -3.22 -1.08 -0.88 -0.29 -3.23 -1.18 -0.88 -0.39 -3.22 -1.27 -0.88 -0.29 -3.13 -1.37 -0.87 -0.39 -3.13 -1.37 -0.88 -0.39 -3.13 -1.56 -0.88 -0.39 -3.12 -1.56 -0.78 -0.49 -3.13 -1.66 -0.78 -0.39 -3.03 -1.76 -0.88 -0.49 -2.93 -1.86 -0.88 -0.48 -2.93 -1.96 -0.78 -0.49 -2.93 -1.95 -0.78 -0.59 -2.93 -2.05 -0.79 -0.58 -2.83 -2.15 -0.78 -0.59 -2.83 -2.25 -0.69 -0.58 -2.83 -2.35 -0.68 -0.58 -2.74 -2.45 -0.68 -0.58 -2.74 -2.54 -0.68 -0.69 -2.64 -2.54 -0.69 -0.68 -3.22 -3.32 -1101.02 -1094.77zm2987.9 968.35c0,-99.75 80.99,-180.74 180.74,-180.74 99.74,0 180.73,80.99 180.73,180.74l0 470.89c0,180.35 -73.76,344.38 -192.36,462.98 -118.7,118.7 -282.73,192.36 -463.07,192.36l-2922.55 0c-180.34,0 -344.27,-73.66 -462.97,-192.36 -118.61,-118.6 -192.37,-282.63 -192.37,-462.98l0 -470.89c0,-99.75 80.99,-180.74 180.74,-180.74 99.75,0 180.74,80.99 180.74,180.74l0 470.89c0,80.6 33.21,154.16 86.46,207.41 53.24,53.24 126.8,86.46 207.4,86.46l2922.55 0c80.6,0 154.26,-33.22 207.5,-86.46 53.25,-53.25 86.46,-126.81 86.46,-207.41l0 -470.89z"/>
 </g>
</svg>
