<?xml version="1.0" encoding="UTF-8"?>
<!DOCTYPE svg PUBLIC "-//W3C//DTD SVG 1.1//EN" "http://www.w3.org/Graphics/SVG/1.1/DTD/svg11.dtd">
<!-- Creator: CorelDRAW -->
<svg xmlns="http://www.w3.org/2000/svg" xml:space="preserve" width="42.3332mm" height="42.3332mm" version="1.1" style="shape-rendering:geometricPrecision; text-rendering:geometricPrecision; image-rendering:optimizeQuality; fill-rule:evenodd; clip-rule:evenodd"
viewBox="0 0 4233.32 4233.32"
 xmlns:xlink="http://www.w3.org/1999/xlink"
 xmlns:xodm="http://www.corel.com/coreldraw/odm/2003">
 <defs>
  <style type="text/css">
   <![CDATA[
    .fil0 {fill:black;fill-rule:nonzero}
   ]]>
  </style>
 </defs>
 <g id="Capa_x0020_1">
  <metadata id="CorelCorpID_0Corel-Layer"/>
  <path class="fil0" d="M2116.63 705.59c-1258.45,0 -2071.36,1299.77 -2086.08,1323.45 -19.73,24.91 -30.56,55.79 -30.56,87.63 0,27.25 8,54.02 22.88,76.85 0.21,0.27 0.37,0.59 0.59,0.85 2.34,5.02 684.69,1333.37 2093.17,1333.37 1402.45,0 2083.84,-1315.29 2092.16,-1331.45 0.53,-0.96 1.07,-1.86 1.6,-2.82 14.93,-22.78 22.93,-49.55 22.93,-76.8 0,-31.74 -10.72,-62.51 -30.34,-87.42 -0.06,-0.05 -0.16,-0.16 -0.27,-0.26 -14.72,-23.63 -827.63,-1323.4 -2086.08,-1323.4zm0 423.3c545.55,0 987.79,442.24 987.79,987.78 0,545.54 -442.24,987.77 -987.79,987.77 -545.55,0 -987.79,-442.23 -987.79,-987.77 0,-545.54 442.24,-987.78 987.79,-987.78zm0 564.42c-233.71,0 -423.31,189.6 -423.31,423.36 0,233.7 189.6,423.3 423.31,423.3 233.76,0 423.36,-189.6 423.36,-423.3 0,-233.76 -189.6,-423.36 -423.36,-423.36z"/>
 </g>
</svg>
