<?xml version="1.0" encoding="UTF-8"?>
<!DOCTYPE svg PUBLIC "-//W3C//DTD SVG 1.1//EN" "http://www.w3.org/Graphics/SVG/1.1/DTD/svg11.dtd">
<!-- Creator: CorelDRAW -->
<svg xmlns="http://www.w3.org/2000/svg" xml:space="preserve" width="42.3332mm" height="42.3332mm" version="1.1" style="shape-rendering:geometricPrecision; text-rendering:geometricPrecision; image-rendering:optimizeQuality; fill-rule:evenodd; clip-rule:evenodd"
viewBox="0 0 4233.32 4233.32"
 xmlns:xlink="http://www.w3.org/1999/xlink"
 xmlns:xodm="http://www.corel.com/coreldraw/odm/2003">
 <defs>
  <style type="text/css">
   <![CDATA[
    .fil0 {fill:#787E87}
   ]]>
  </style>
 </defs>
 <g id="Capa_x0020_1">
  <metadata id="CorelCorpID_0Corel-Layer"/>
  <path class="fil0" d="M2702.03 3562.19c29.57,17.4 1413.91,172.44 1531.29,190.8l-1086.74 413.5 -1811.32 -235.28c-192.4,-26.36 -377.41,-103.46 -525.45,-208.36 -23.7,-16.83 -45.36,-35.4 -69.06,-51.19 -101.12,-67.24 -224.28,-215.89 -301.09,-312.31 -208.92,-262.5 -371.84,-699.02 -415.85,-1050.37 -77.8,-621.65 36.4,-1151.19 322.48,-1584.83 74.11,-112.34 183.4,-235.11 290.04,-317.7 202.18,-156.61 341.7,-199.93 600.38,-253.37 140.56,-29.06 278.82,-50.24 423.07,-70.11 313.35,-43.19 572.51,-0.44 809.27,135.25 679.45,389.46 928.47,1227.43 879.11,2039.79 -4.65,76.28 -13.48,142.08 -25.18,216.58 -55.71,354.84 -174.18,651.57 -416.16,918.95 -40.49,44.75 -152.87,143.04 -204.79,168.65zm1042.63 251.16l-616.86 226.15 -1295.84 -164.87 647.27 -207.93 1265.43 146.65zm-889.37 -540.24c-93.16,113.73 -244.68,221.67 -381.15,272.17 -78.81,29.18 -167.92,53.18 -244.85,76.45 33.05,-39.88 82.89,-79.8 136.25,-150.52 85.16,-112.81 165.18,-237.8 222.37,-367.79 12.74,-29.01 82.59,-201.76 83.59,-206.89 23.05,-116.68 69.58,-203.88 90.41,-403.85 12.79,-122.73 15.66,-245.68 14.44,-367.1 -3.35,-320.66 -51.23,-632.7 -170.13,-915.34 -104.03,-247.25 -218.02,-440.56 -374.24,-605.91 -74.58,-78.98 -157.56,-164.48 -261.81,-231.02 -53.06,-33.88 -95.72,-59.41 -154.6,-92.07 -24.31,-13.53 -57.5,-27.57 -82.24,-37.66 -21.58,-8.83 -71.15,-24.57 -89.29,-34.92 31.97,-15.23 219.5,-23.01 267.25,-23.19 536.45,-1.69 974.74,459.96 1156.93,929.09 104.59,269.29 166.26,598.6 167.52,930.39 1.78,464.43 -94.03,878.5 -380.45,1228.16zm-2259.54 -2075.22c-6,16.44 -56.97,108.33 -83.98,173.26 -84.11,201.84 -115.68,442.65 -107.42,665.97 12.57,340.14 134.43,724.81 329.7,964.96 30.14,37.1 54.88,70.67 88.98,100.16 27.79,24.09 11.7,19.83 67.28,64.5 91.94,73.8 163.44,129.29 288.64,169.83 140.96,45.62 301.48,46.36 437.91,-6.48 150.34,-58.19 271.42,-160.7 360.84,-287 309.65,-437.51 306.82,-1093.78 105.33,-1556.47 -150.08,-344.53 -443.6,-703.2 -853.8,-697.67 -168.31,2.26 -278.56,59.06 -390.11,133.38l-66.93 55.58c-56.15,48.84 -134.64,153.39 -176.44,219.98zm-144.13 -417.73c38.88,-40.36 74.85,-111.42 170.18,-199.01 78.5,-72.19 109.9,-102.16 205.32,-161.52 170.92,-106.38 353.57,-149.96 591.9,-136.26 175.09,10.05 376.23,112.6 515.62,211.41 68.37,48.49 127.04,102.2 194.27,172.52 28.84,30.14 56.28,63.67 84.68,98.68 14.7,18.1 23.92,31.53 39.92,51.84 221.85,281.47 374.5,735.56 405.77,1169.33 15.87,220.5 -1.74,479 -51.8,682.93 -48.93,199.49 -105.68,362.1 -205.4,533.93 -45.67,78.72 -126.73,196.57 -192.32,266.07 -514.62,544.94 -1193.37,423.12 -1650.11,-150.78 -205.62,-258.38 -373.66,-653.88 -420.98,-1056.2 -29.71,-252.29 -20.75,-440.87 7,-687.63 16,-142.13 95.85,-395.02 161.74,-541.11 6.22,-13.83 -2.09,-8.74 8.31,-11.91 19.91,-65.72 98.98,-186.14 135.9,-242.29zm940.83 149.83c-0.91,1.34 -2.61,1.43 -3.18,3.56 -0.56,2.09 -2.48,2.7 -3.26,3.39l-108.11 88.2c-124,128.43 -165.27,208.67 -231.42,393.24 -141.95,395.94 -24,989.41 244.59,1307.45 55.5,65.67 138.56,145.26 226.59,191.84 112.81,59.67 201.75,77.89 349.05,69.45 -18.87,43.1 -108.47,122.91 -148.13,152.3 -211.49,156.66 -482.61,139.91 -679.84,-6.61 -104.55,-77.67 -151.87,-126.51 -224.15,-222.84 -23.61,-31.49 -41.75,-58.1 -62.58,-92.03 -174.61,-283.68 -246.2,-636.91 -224.58,-980.92 23.05,-366.97 203.05,-819.27 594.64,-915.95 106.64,-26.31 172.05,-7.05 270.38,8.92zm711.85 1250.17c0,204.01 -33.49,414.98 -108.42,583.16 -25.66,57.58 -14.57,67.54 -77.37,88.85 -309.74,105.03 -584.34,-200.79 -692.24,-462.78 -150.52,-365.49 -180.7,-823.79 40.8,-1162.93 66.36,-101.64 134.6,-167.44 244.8,-219.63 37.62,-17.83 75.2,14.49 120.78,53.45 20.91,17.92 35.27,26.88 52.62,44.84 121.25,125.38 217.54,249.55 295.95,449.13 73.37,186.66 123.08,399.76 123.08,625.91z"/>
 </g>
</svg>
