<?xml version="1.0" encoding="UTF-8"?>
<!DOCTYPE svg PUBLIC "-//W3C//DTD SVG 1.1//EN" "http://www.w3.org/Graphics/SVG/1.1/DTD/svg11.dtd">
<!-- Creator: CorelDRAW -->
<svg xmlns="http://www.w3.org/2000/svg" xml:space="preserve" width="10.1598mm" height="10.1598mm" version="1.1" style="shape-rendering:geometricPrecision; text-rendering:geometricPrecision; image-rendering:optimizeQuality; fill-rule:evenodd; clip-rule:evenodd"
viewBox="0 0 1015.98 1015.98"
 xmlns:xlink="http://www.w3.org/1999/xlink"
 xmlns:xodm="http://www.corel.com/coreldraw/odm/2003">
 <defs>
  <style type="text/css">
   <![CDATA[
    .fil0 {fill:#374151}
   ]]>
  </style>
 </defs>
 <g id="Capa_x0020_1">
  <metadata id="CorelCorpID_0Corel-Layer"/>
  <path class="fil0" d="M642.59 840.37c6.8,4 325.11,39.65 352.1,43.87l-249.88 95.08 -416.49 -54.1c-44.24,-6.06 -86.78,-23.79 -120.82,-47.91 -5.45,-3.87 -10.43,-8.14 -15.88,-11.77 -23.25,-15.46 -51.57,-49.64 -69.23,-71.81 -48.04,-60.36 -85.5,-160.73 -95.62,-241.52 -17.89,-142.94 8.37,-264.7 74.15,-364.41 17.04,-25.83 42.17,-54.06 66.69,-73.05 46.49,-36.01 78.57,-45.97 138.05,-58.26 32.32,-6.68 64.11,-11.55 97.28,-16.12 72.05,-9.93 131.64,-0.1 186.08,31.1 156.23,89.55 213.49,282.23 202.14,469.02 -1.07,17.54 -3.1,32.67 -5.79,49.8 -12.81,81.59 -40.05,149.82 -95.69,211.3 -9.31,10.29 -35.15,32.89 -47.09,38.78zm239.74 57.75l-141.84 52 -297.96 -37.91 148.83 -47.81 290.97 33.72zm-204.5 -124.22c-21.42,26.15 -56.26,50.97 -87.64,62.58 -18.12,6.71 -38.61,12.23 -56.3,17.58 7.6,-9.17 19.06,-18.35 31.33,-34.61 19.58,-25.94 37.98,-54.68 51.13,-84.57 2.93,-6.67 18.99,-46.39 19.22,-47.57 5.3,-26.83 16,-46.88 20.79,-92.86 2.94,-28.22 3.6,-56.49 3.32,-84.41 -0.77,-73.73 -11.78,-145.48 -39.12,-210.47 -23.92,-56.85 -50.13,-101.3 -86.05,-139.32 -17.15,-18.16 -36.23,-37.82 -60.2,-53.12 -12.2,-7.79 -22.01,-13.66 -35.55,-21.17 -5.59,-3.11 -13.22,-6.34 -18.91,-8.66 -4.96,-2.03 -16.36,-5.65 -20.53,-8.03 7.35,-3.5 50.47,-5.29 61.45,-5.33 123.35,-0.39 224.13,105.76 266.02,213.63 24.05,61.92 38.23,137.64 38.52,213.93 0.41,106.79 -21.62,202 -87.48,282.4zm-519.55 -477.17c-1.38,3.78 -13.1,24.91 -19.31,39.84 -19.34,46.41 -26.6,101.78 -24.7,153.13 2.89,78.21 30.91,166.66 75.81,221.88 6.93,8.53 12.62,16.25 20.46,23.03 6.39,5.54 2.69,4.56 15.47,14.83 21.14,16.97 37.58,29.73 66.37,39.05 32.41,10.49 69.32,10.66 100.69,-1.49 34.57,-13.38 62.41,-36.95 82.97,-65.99 71.2,-100.6 70.55,-251.5 24.22,-357.89 -34.51,-79.22 -102,-161.69 -196.32,-160.42 -38.7,0.52 -64.05,13.58 -89.7,30.67l-15.39 12.78c-12.91,11.23 -30.96,35.27 -40.57,50.58zm-33.14 -96.05c8.94,-9.28 17.21,-25.62 39.13,-45.76 18.05,-16.6 25.27,-23.49 47.21,-37.14 39.3,-24.46 81.3,-34.48 136.1,-31.33 40.26,2.31 86.51,25.89 118.56,48.61 15.72,11.15 29.21,23.5 44.67,39.67 6.63,6.93 12.94,14.64 19.47,22.69 3.38,4.16 5.5,7.25 9.18,11.92 51.01,64.72 86.11,169.13 93.3,268.87 3.65,50.7 -0.4,110.14 -11.91,157.03 -11.25,45.87 -24.3,83.26 -47.23,122.77 -10.5,18.1 -29.14,45.2 -44.22,61.18 -118.33,125.3 -274.4,97.29 -379.42,-34.67 -47.28,-59.41 -85.92,-150.35 -96.8,-242.86 -6.83,-58.01 -4.77,-101.37 1.61,-158.11 3.68,-32.68 22.04,-90.83 37.19,-124.42 1.43,-3.18 -0.48,-2.01 1.91,-2.74 4.58,-15.11 22.76,-42.8 31.25,-55.71zm216.33 34.45c-0.21,0.31 -0.6,0.33 -0.73,0.82 -0.13,0.48 -0.57,0.62 -0.75,0.78l-24.86 20.28c-28.51,29.53 -38,47.98 -53.21,90.42 -32.64,91.04 -5.52,227.5 56.24,300.63 12.76,15.1 31.86,33.4 52.1,44.11 25.94,13.72 46.39,17.91 80.26,15.97 -4.34,9.91 -24.94,28.26 -34.06,35.02 -48.63,36.02 -110.97,32.17 -156.32,-1.52 -24.04,-17.86 -34.92,-29.09 -51.54,-51.24 -5.43,-7.24 -9.6,-13.36 -14.39,-21.16 -40.15,-65.23 -56.61,-146.45 -51.64,-225.55 5.3,-84.38 46.69,-188.38 136.73,-210.61 24.52,-6.05 39.56,-1.62 62.17,2.05zm163.68 287.46c0,46.91 -7.7,95.42 -24.93,134.09 -5.9,13.24 -3.35,15.53 -17.79,20.43 -71.22,24.15 -134.36,-46.17 -159.17,-106.41 -34.61,-84.04 -41.55,-189.42 9.38,-267.4 15.26,-23.37 30.95,-38.5 56.29,-50.5 8.65,-4.1 17.29,3.33 27.77,12.29 4.81,4.12 8.11,6.18 12.1,10.31 27.88,28.83 50.02,57.38 68.05,103.27 16.87,42.92 28.3,91.92 28.3,143.92z"/>
 </g>
</svg>
