<?xml version="1.0" encoding="UTF-8"?>
<!DOCTYPE svg PUBLIC "-//W3C//DTD SVG 1.1//EN" "http://www.w3.org/Graphics/SVG/1.1/DTD/svg11.dtd">
<!-- Creator: CorelDRAW -->
<svg xmlns="http://www.w3.org/2000/svg" xml:space="preserve" width="69.4266mm" height="27.0932mm" version="1.1" style="shape-rendering:geometricPrecision; text-rendering:geometricPrecision; image-rendering:optimizeQuality; fill-rule:evenodd; clip-rule:evenodd"
viewBox="0 0 6942.66 2709.32"
 xmlns:xlink="http://www.w3.org/1999/xlink"
 xmlns:xodm="http://www.corel.com/coreldraw/odm/2003">
 <defs>
  <style type="text/css">
   <![CDATA[
    .fil2 {fill:#005B17}
    .fil3 {fill:#00833F}
    .fil1 {fill:black;fill-rule:nonzero}
    .fil0 {fill:#4D4D4D;fill-rule:nonzero}
   ]]>
  </style>
 </defs>
 <g id="Capa_x0020_1">
  <metadata id="CorelCorpID_0Corel-Layer"/>
  <g id="_2138001609888">
   <polygon class="fil0" points="365.73,2352.44 464.76,2589.41 564.15,2352.44 594.42,2352.44 594.42,2620.93 571.74,2620.93 571.74,2504.03 573.57,2384.13 473.6,2620.93 456.08,2620.93 356.5,2385.07 358.37,2503.29 358.37,2620.93 335.65,2620.93 335.65,2352.44 "/>
   <path class="fil0" d="M886.07 2523.2c0,25.47 5.12,45.51 15.32,60.2 10.19,14.73 24.57,22.06 43.14,22.06 27.17,0 46.47,-11.98 57.91,-35.98l0 -93.68c-11.44,-25.93 -30.62,-38.91 -57.53,-38.91 -18.56,0 -33.02,7.28 -43.33,21.86 -10.35,14.57 -15.51,36.04 -15.51,64.45zm-22.32 -3.88c0,-30.96 6.94,-55.65 20.77,-74.03 13.8,-18.37 32.6,-27.56 56.33,-27.56 26.94,0 47.44,10.63 61.59,31.9l0 -111.94 21.93 0 0 283.27 -20.62 0 -0.92 -26.55c-14.16,20.15 -34.93,30.23 -62.34,30.23 -23.01,0 -41.55,-9.26 -55.61,-27.74 -14.08,-18.54 -21.13,-43.5 -21.13,-74.97l0 -2.61z"/>
   <path class="fil0" d="M1212.73 2595.68c-13.29,19.3 -34.5,28.96 -63.61,28.96 -21.28,0 -37.44,-6.16 -48.53,-18.54 -11.04,-12.36 -16.7,-30.65 -16.97,-54.88l0 -129.81 21.97 0 0 127.06c0,37.99 15.35,56.97 46.09,56.97 31.98,0 52.22,-13.21 60.67,-39.64l0 -144.39 22.13 0 0 199.55 -21.36 0 -0.39 -25.28z"/>
   <polygon class="fil0" points="1318.47,2620.97 1296.33,2620.97 1296.33,2337.7 1318.47,2337.7 "/>
   <path class="fil0" d="M1390.22 2524.31c0,23.83 6.17,43.45 18.53,58.72 12.37,15.32 28.56,22.99 48.61,22.99 19.93,0 36.05,-7.67 48.42,-22.99 12.36,-15.27 18.52,-35.47 18.52,-60.59l0 -4.21c0,-15.24 -2.83,-29.2 -8.49,-41.87 -5.66,-12.68 -13.57,-22.48 -23.8,-29.42 -10.2,-6.93 -21.86,-10.43 -35.04,-10.43 -19.66,0 -35.7,7.71 -48.1,23.14 -12.44,15.43 -18.65,35.62 -18.65,60.59l0 4.07zm-22.13 -6.08c0,-19.19 3.73,-36.44 11.17,-51.83 7.44,-15.35 17.94,-27.33 31.54,-35.85 13.57,-8.57 28.96,-12.84 46.17,-12.84 26.59,0 48.1,9.31 64.57,27.95 16.49,18.61 24.7,43.29 24.7,74.04l0 4.61c0,19.31 -3.72,36.67 -11.16,52.09 -7.45,15.43 -17.91,27.33 -31.45,35.7 -13.52,8.34 -28.95,12.53 -46.27,12.53 -26.44,0 -47.91,-9.31 -64.46,-27.95 -16.55,-18.61 -24.81,-43.29 -24.81,-74.04l0 -4.41z"/>
   <path class="fil0" d="M1700.88 2523.2c0,25.47 5.12,45.51 15.31,60.2 10.19,14.73 24.58,22.06 43.15,22.06 27.17,0 46.47,-11.98 57.9,-35.98l0 -93.68c-11.43,-25.93 -30.62,-38.91 -57.52,-38.91 -18.57,0 -33.03,7.28 -43.33,21.86 -10.36,14.57 -15.51,36.04 -15.51,64.45zm-22.32 -3.88c0,-30.96 6.93,-55.65 20.77,-74.03 13.8,-18.37 32.6,-27.56 56.32,-27.56 26.93,0 47.45,10.63 61.59,31.9l0 -111.94 21.94 0 0 283.27 -20.62 0 -0.93 -26.55c-14.15,20.15 -34.92,30.23 -62.33,30.23 -23.03,0 -41.55,-9.26 -55.62,-27.74 -14.07,-18.54 -21.12,-43.5 -21.12,-74.97l0 -2.61z"/>
   <path class="fil0" d="M1972.4 2436.53c-16.59,0 -30.59,6.09 -41.94,18.25 -11.4,12.18 -18.3,28.54 -20.77,49.07l119.68 0 0 -2.39c-0.61,-19.19 -6.07,-34.81 -16.39,-46.86 -10.35,-12.06 -23.88,-18.07 -40.58,-18.07zm4.07 188.11c-16.98,0 -32.33,-4.19 -46.01,-12.56 -13.72,-8.33 -24.38,-20 -32.01,-34.92 -7.64,-14.96 -11.44,-31.71 -11.44,-50.28l0 -7.91c0,-19.18 3.72,-36.46 11.16,-51.81 7.44,-15.4 17.79,-27.45 31.09,-36.25 13.26,-8.8 27.64,-13.18 43.14,-13.18 24.23,0 43.42,8.26 57.63,24.81 14.2,16.51 21.29,39.11 21.29,67.75l0 12.36 -142.37 0 0 4.23c0,22.64 6.51,41.48 19.46,56.56 12.98,15.04 29.3,22.55 48.95,22.55 11.82,0 22.25,-2.13 31.28,-6.42 9.03,-4.31 17.25,-11.21 24.61,-20.67l13.85 10.5c-16.24,23.49 -39.78,35.24 -70.63,35.24z"/>
   <path class="fil0" d="M2250.8 2526.34l107.72 0 -53.88 -146.25 -53.84 146.25zm114.88 19.19l-121.9 0 -27.64 75.42 -23.8 0 101.59 -268.53 21.59 0 101.64 268.53 -23.6 0 -27.88 -75.42z"/>
   <path class="fil0" d="M2466.8 2523.2c0,25.46 5.11,45.54 15.31,60.19 10.19,14.73 24.57,22.06 43.14,22.06 27.18,0 46.47,-11.98 57.91,-35.97l0 -93.69c-11.44,-25.93 -30.63,-38.92 -57.52,-38.92 -18.57,0 -33.03,7.3 -43.34,21.87 -10.35,14.57 -15.5,36.05 -15.5,64.46zm-22.33 -3.88c0,-30.97 6.94,-55.66 20.78,-74.03 13.8,-18.37 32.6,-27.56 56.32,-27.56 26.93,0 47.45,10.61 61.59,31.9l0 -111.94 21.94 0 0 283.26 -20.62 0 -0.94 -26.55c-14.14,20.16 -34.92,30.24 -62.32,30.24 -23.03,0 -41.55,-9.27 -55.63,-27.76 -14.06,-18.49 -21.12,-43.49 -21.12,-74.97l0 -2.59z"/>
   <path class="fil0" d="M2685.2 2421.4l0.73 32.45c7.38,-12.06 16.59,-21.09 27.68,-27.1 11.05,-6.04 23.34,-9.03 36.86,-9.03 31.48,0 51.48,12.91 59.97,38.72 7.13,-12.44 16.63,-21.98 28.57,-28.68 11.93,-6.71 25.07,-10.04 39.46,-10.04 42.79,0 64.61,23.37 65.46,70.08l0 133.14 -22.13 0 0 -131.47c-0.12,-17.84 -3.95,-31.05 -11.51,-39.66 -7.56,-8.6 -19.89,-12.91 -36.98,-12.91 -15.85,0.23 -29.27,5.35 -40.2,15.4 -10.92,10 -17.01,22.2 -18.25,36.59l0 132.05 -22.14 0 0 -133.14c-0.11,-17.1 -4.14,-29.84 -12.09,-38.26 -7.91,-8.45 -20.11,-12.64 -36.58,-12.64 -13.92,0 -25.82,3.96 -35.79,11.9 -9.95,7.91 -17.36,19.69 -22.13,35.32l0 136.82 -22.13 0 0 -199.54 21.2 0z"/>
   <path class="fil0" d="M3026.44 2620.92l-22.13 0 0 -199.54 22.13 0 0 199.54zm-26.01 -257.14c0,-4.14 1.35,-7.68 4.06,-10.55 2.68,-2.86 6.41,-4.29 11.06,-4.29 4.69,0 8.4,1.43 11.16,4.29 2.75,2.87 4.14,6.41 4.14,10.55 0,4.14 -1.39,7.64 -4.14,10.43 -2.76,2.82 -6.47,4.22 -11.16,4.22 -4.65,0 -8.38,-1.4 -11.06,-4.22 -2.71,-2.79 -4.06,-6.29 -4.06,-10.43z"/>
   <path class="fil0" d="M3109.28 2421.4l0.74 34.11c7.52,-12.29 16.86,-21.67 28.03,-28.1 11.19,-6.47 23.56,-9.69 37.09,-9.69 21.36,0 37.29,6.01 47.75,18.06 10.43,12.06 15.73,30.12 15.86,54.23l0 130.93 -21.95 0 0 -131.12c-0.11,-17.83 -3.91,-31.1 -11.35,-39.85 -7.45,-8.73 -19.35,-13.07 -35.66,-13.07 -13.65,0 -25.73,4.27 -36.25,12.79 -10.54,8.57 -18.29,20.09 -23.33,34.58l0 136.67 -21.94 0 0 -199.54 21.01 0z"/>
   <path class="fil0" d="M3322.31 2620.92l-22.14 0 0 -199.54 22.14 0 0 199.54zm-25.98 -257.14c0,-4.14 1.32,-7.68 4.03,-10.55 2.72,-2.86 6.4,-4.29 11.09,-4.29 4.65,0 8.37,1.43 11.16,4.29 2.75,2.87 4.15,6.41 4.15,10.55 0,4.14 -1.4,7.64 -4.15,10.43 -2.79,2.82 -6.51,4.22 -11.16,4.22 -4.69,0 -8.37,-1.4 -11.09,-4.22 -2.71,-2.79 -4.03,-6.29 -4.03,-10.43z"/>
   <path class="fil0" d="M3503.65 2570.23c0,-10.94 -4.38,-19.73 -13.18,-26.36 -8.79,-6.66 -22.05,-11.86 -39.77,-15.62 -17.67,-3.72 -31.43,-8.03 -41.2,-12.91 -9.77,-4.84 -17.02,-10.78 -21.74,-17.79 -4.74,-6.97 -7.13,-15.47 -7.13,-25.43 0,-15.74 6.58,-28.76 19.76,-39.03 13.14,-10.23 30,-15.39 50.5,-15.39 22.25,0 40.13,5.5 53.58,16.51 13.49,11.01 20.19,25.35 20.19,43.07l-22.14 0c0,-11.67 -4.88,-21.4 -14.64,-29.15 -9.77,-7.75 -22.1,-11.59 -36.99,-11.59 -14.49,0 -26.16,3.22 -34.92,9.65 -8.8,6.48 -13.21,14.85 -13.21,25.19 0,9.97 3.68,17.68 11.01,23.15 7.28,5.46 20.62,10.46 40,15.03 19.37,4.54 33.87,9.39 43.52,14.58 9.66,5.16 16.82,11.35 21.48,18.61 4.68,7.25 7.01,16.05 7.01,26.35 0,16.87 -6.78,30.32 -20.38,40.39 -13.57,10.08 -31.32,15.16 -53.19,15.16 -23.25,0 -42.09,-5.62 -56.55,-16.9 -14.42,-11.24 -21.67,-25.47 -21.67,-42.68l22.14 0c0.85,12.91 6.32,22.96 16.32,30.16 10.04,7.17 23.26,10.77 39.76,10.77 15.35,0 27.75,-3.36 37.26,-10.15 9.45,-6.75 14.18,-15.31 14.18,-25.62z"/>
   <path class="fil0" d="M3611.58 2370.31l0 51.09 41.33 0 0 18.06 -41.33 0 0 133.15c0,11.04 2.03,19.29 6.01,24.72 3.99,5.43 10.66,8.11 20,8.11 3.68,0 9.66,-0.58 17.88,-1.82l0.92 17.91c-5.77,2.05 -13.64,3.09 -23.6,3.09 -15.12,0 -26.13,-4.38 -33.03,-13.18 -6.86,-8.79 -10.31,-21.74 -10.31,-38.83l0 -133.15 -36.7 0 0 -18.06 36.7 0 0 -51.09 22.13 0z"/>
   <path class="fil0" d="M3792.73 2440.21c-4.69,-0.86 -9.64,-1.27 -14.92,-1.27 -13.8,0 -25.42,3.83 -34.96,11.5 -9.54,7.68 -16.32,18.84 -20.39,33.46l0 137.05 -21.93 0 0 -199.54 21.59 0 0.34 31.71c11.71,-23.61 30.43,-35.43 56.24,-35.43 6.17,0 11.01,0.82 14.58,2.4l-0.55 20.12z"/>
   <path class="fil0" d="M3878.72 2605.08c14.77,0 27.94,-3.56 39.58,-10.69 11.59,-7.13 20.04,-16.67 25.35,-28.57l0 -43.92 -39.46 0c-22.02,0.28 -39.22,4.27 -51.67,12.1 -12.41,7.79 -18.61,18.52 -18.61,32.17 0,11.2 4.15,20.46 12.44,27.87 8.3,7.36 19.08,11.04 32.37,11.04zm69.34 15.85c-2.21,-6.24 -3.63,-15.53 -4.22,-27.83 -7.75,10.09 -17.64,17.88 -29.62,23.34 -11.97,5.47 -24.69,8.17 -38.09,8.17 -19.15,0 -34.7,-5.34 -46.56,-16.04 -11.86,-10.7 -17.8,-24.18 -17.8,-40.54 0,-19.46 8.07,-34.81 24.28,-46.13 16.16,-11.31 38.68,-16.94 67.56,-16.94l40.04 0 0 -22.71c0,-14.26 -4.42,-25.47 -13.18,-33.64 -8.8,-8.19 -21.63,-12.29 -38.45,-12.29 -15.4,0 -28.11,3.95 -38.19,11.82 -10.07,7.87 -15.11,17.32 -15.11,28.41l-22.13 -0.19c0,-15.86 7.36,-29.61 22.13,-41.2 14.73,-11.64 32.87,-17.45 54.38,-17.45 22.25,0 39.81,5.58 52.63,16.71 12.88,11.12 19.46,26.62 19.86,46.55l0 94.42c0,19.3 2.01,33.76 6.09,43.33l0 2.21 -23.62 0z"/>
   <path class="fil0" d="M4100.07 2606.01c15.35,0 28.26,-4.34 38.65,-12.99 10.39,-8.68 16.01,-19.92 16.86,-33.68l21.2 0c-0.62,12.17 -4.42,23.26 -11.43,33.3 -7.02,10.03 -16.32,17.87 -27.95,23.49 -11.59,5.66 -24.03,8.48 -37.33,8.48 -26.2,0 -46.93,-9.06 -62.25,-27.28 -15.31,-18.18 -22.94,-42.64 -22.94,-73.38l0 -6.66c0,-19.66 3.45,-37.06 10.3,-52.18 6.9,-15.12 16.75,-26.82 29.63,-35.04 12.82,-8.25 27.86,-12.36 45.07,-12.36 21.91,0 39.93,6.51 54.15,19.53 14.19,13.07 21.78,30.2 22.75,51.48l-21.2 0c-0.96,-15.62 -6.59,-28.22 -16.86,-37.8 -10.28,-9.61 -23.22,-14.41 -38.84,-14.41 -19.92,0 -35.35,7.21 -46.36,21.59 -11.01,14.38 -16.51,34.53 -16.51,60.51l0 6.42c0,25.47 5.5,45.32 16.51,59.58 11.01,14.27 26.51,21.4 46.55,21.4z"/>
   <path class="fil0" d="M4247.49 2620.92l-22.13 0 0 -199.54 22.13 0 0 199.54zm-26 -257.14c0,-4.14 1.31,-7.68 4.03,-10.55 2.71,-2.86 6.39,-4.29 11.09,-4.29 4.69,0 8.37,1.43 11.11,4.29 2.8,2.87 4.19,6.41 4.19,10.55 0,4.14 -1.39,7.64 -4.19,10.43 -2.74,2.82 -6.42,4.22 -11.11,4.22 -4.7,0 -8.38,-1.4 -11.09,-4.22 -2.72,-2.79 -4.03,-6.29 -4.03,-10.43z"/>
   <path class="fil0" d="M4407.97 2337.66l26.74 0 -42.6 51.63 -19.38 -0.07 35.24 -51.56zm-88.73 186.65c0,23.83 6.21,43.44 18.57,58.72 12.33,15.31 28.52,22.98 48.57,22.98 19.93,0 36.09,-7.67 48.41,-22.98 12.37,-15.28 18.53,-35.47 18.53,-60.59l0 -4.22c0,-15.24 -2.79,-29.19 -8.45,-41.86 -5.66,-12.68 -13.61,-22.48 -23.8,-29.42 -10.19,-6.94 -21.91,-10.43 -35.05,-10.43 -19.69,0 -35.73,7.71 -48.13,23.14 -12.41,15.42 -18.65,35.62 -18.65,60.58l0 4.08zm-22.09 -6.09c0,-19.19 3.68,-36.43 11.13,-51.83 7.43,-15.35 17.94,-27.32 31.54,-35.85 13.57,-8.57 29,-12.83 46.2,-12.83 26.56,0 48.07,9.3 64.54,27.95 16.49,18.6 24.74,43.29 24.74,74.03l0 4.62c0,19.29 -3.73,36.66 -11.17,52.09 -7.44,15.43 -17.94,27.33 -31.43,35.7 -13.53,8.33 -28.95,12.51 -46.32,12.51 -26.44,0 -47.91,-9.29 -64.46,-27.94 -16.51,-18.6 -24.77,-43.3 -24.77,-74.03l0 -4.42z"/>
   <path class="fil0" d="M4543.74 2421.4l0.73 34.11c7.52,-12.29 16.86,-21.67 28.02,-28.1 11.21,-6.47 23.57,-9.69 37.1,-9.69 21.36,0 37.29,6.01 47.76,18.06 10.42,12.06 15.73,30.12 15.84,54.23l0 130.93 -21.93 0 0 -131.12c-0.12,-17.83 -3.92,-31.1 -11.36,-39.85 -7.44,-8.73 -19.34,-13.07 -35.67,-13.07 -13.67,0 -25.73,4.27 -36.23,12.79 -10.55,8.57 -18.3,20.09 -23.34,34.58l0 136.67 -21.93 0 0 -199.54 21.01 0z"/>
   <path class="fil0" d="M4839.28 2523.2c0,25.46 5.11,45.54 15.3,60.19 10.2,14.73 24.58,22.06 43.14,22.06 27.17,0 46.48,-11.98 57.92,-35.97l0 -93.69c-11.44,-25.93 -30.63,-38.92 -57.52,-38.92 -18.57,0 -33.03,7.3 -43.34,21.87 -10.35,14.57 -15.5,36.05 -15.5,64.46zm-22.33 -3.88c0,-30.97 6.93,-55.66 20.77,-74.03 13.8,-18.37 32.6,-27.56 56.32,-27.56 26.94,0 47.44,10.61 61.6,31.9l0 -111.94 21.94 0 0 283.26 -20.63 0 -0.93 -26.55c-14.14,20.16 -34.92,30.24 -62.32,30.24 -23.03,0 -41.56,-9.27 -55.63,-27.76 -14.06,-18.49 -21.12,-43.49 -21.12,-74.97l0 -2.59z"/>
   <path class="fil0" d="M5110.8 2436.52c-16.59,0 -30.58,6.09 -41.94,18.26 -11.39,12.17 -18.29,28.52 -20.78,49.07l119.7 0 0 -2.41c-0.61,-19.18 -6.09,-34.8 -16.39,-46.86 -10.35,-12.05 -23.88,-18.06 -40.59,-18.06zm4.08 188.12c-16.98,0 -32.33,-4.19 -46.02,-12.53 -13.72,-8.37 -24.38,-20.04 -32.02,-34.96 -7.63,-14.97 -11.42,-31.71 -11.42,-50.28l0 -7.9c0,-19.19 3.71,-36.48 11.16,-51.83 7.44,-15.38 17.79,-27.43 31.08,-36.24 13.25,-8.8 27.64,-13.18 43.14,-13.18 24.23,0 43.41,8.26 57.64,24.81 14.19,16.51 21.28,39.11 21.28,67.76l0 12.36 -142.37 0 0 4.22c0,22.64 6.51,41.48 19.46,56.56 12.98,15.03 29.3,22.59 48.96,22.59 11.82,0 22.25,-2.16 31.28,-6.47 9.03,-4.31 17.25,-11.2 24.61,-20.66l13.83 10.51c-16.24,23.49 -39.76,35.24 -70.61,35.24z"/>
   <path class="fil0" d="M5361.65 2492.42l68.8 0c21.98,0 38.76,-5.24 50.36,-15.7 11.54,-10.47 17.31,-25.08 17.31,-43.76 0,-18.6 -5.73,-33.41 -17.24,-44.42 -11.51,-11.04 -27.83,-16.67 -48.96,-16.9l-70.27 0 0 120.78zm0 19.19l0 109.35 -22.68 0 0 -268.51 91.48 0c27.91,0 49.93,7.14 66.09,21.4 16.2,14.26 24.26,33.84 24.26,58.8 0,25.23 -7.79,44.69 -23.33,58.38 -15.54,13.72 -38.07,20.58 -67.6,20.58l-68.22 0z"/>
   <path class="fil0" d="M5660.46 2440.23c-4.69,-0.85 -9.66,-1.28 -14.92,-1.28 -13.8,0 -25.43,3.84 -34.96,11.51 -9.54,7.68 -16.33,18.85 -20.39,33.49l0 137.03 -21.95 0 0 -199.55 21.59 0 0.36 31.71c11.7,-23.61 30.42,-35.43 56.24,-35.43 6.17,0 11.01,0.81 14.57,2.41l-0.54 20.11z"/>
   <path class="fil0" d="M5703.48 2524.33c0,23.84 6.16,43.41 18.52,58.73 12.37,15.31 28.57,22.99 48.61,22.99 19.92,0 36.05,-7.68 48.41,-22.99 12.37,-15.32 18.54,-35.51 18.54,-60.59l0 -4.23c0,-15.27 -2.84,-29.18 -8.5,-41.86 -5.65,-12.67 -13.56,-22.48 -23.79,-29.41 -10.2,-6.95 -21.87,-10.43 -35.04,-10.43 -19.66,0 -35.7,7.71 -48.11,23.14 -12.44,15.43 -18.64,35.62 -18.64,60.59l0 4.06zm-22.13 -6.09c0,-19.18 3.71,-36.46 11.16,-51.81 7.44,-15.4 17.95,-27.33 31.55,-35.87 13.57,-8.55 28.95,-12.82 46.17,-12.82 26.54,0 48.1,9.3 64.57,27.94 16.47,18.62 24.69,43.3 24.69,74.04l0 4.61c0,19.31 -3.71,36.67 -11.16,52.09 -7.44,15.44 -17.91,27.34 -31.44,35.71 -13.52,8.33 -28.95,12.52 -46.28,12.52 -26.43,0 -47.9,-9.31 -64.46,-27.95 -16.55,-18.61 -24.8,-43.3 -24.8,-74.04l0 -4.42z"/>
   <path class="fil0" d="M5920.4 2523.22c0,25.43 5.12,45.51 15.32,60.2 10.19,14.69 24.57,22.05 43.14,22.05 27.17,0 46.47,-11.97 57.91,-35.97l0 -93.68c-11.44,-25.93 -30.62,-38.92 -57.53,-38.92 -18.56,0 -33.02,7.29 -43.33,21.87 -10.35,14.57 -15.51,36.04 -15.51,64.45zm-22.32 -3.88c0,-30.96 6.94,-55.65 20.77,-74.03 13.8,-18.4 32.6,-27.59 56.33,-27.59 26.94,0 47.44,10.66 61.59,31.94l0 -111.98 21.93 0 0 283.26 -20.62 0 -0.92 -26.55c-14.16,20.19 -34.93,30.27 -62.34,30.27 -23.01,0 -41.55,-9.26 -55.61,-27.75 -14.08,-18.53 -21.13,-43.49 -21.13,-74.96l0 -2.61z"/>
   <path class="fil0" d="M6247.06 2595.71c-13.29,19.3 -34.5,28.95 -63.61,28.95 -21.28,0 -37.44,-6.2 -48.53,-18.53 -11.04,-12.37 -16.7,-30.66 -16.97,-54.89l0 -129.81 21.97 0 0 127.06c0,37.99 15.35,56.98 46.09,56.98 31.98,0 52.22,-13.21 60.67,-39.65l0 -144.39 22.12 0 0 199.55 -21.35 0 -0.39 -25.27z"/>
   <path class="fil0" d="M6401.83 2606.02c15.35,0 28.25,-4.34 38.64,-12.98 10.39,-8.68 16.01,-19.92 16.86,-33.68l21.2 0c-0.61,12.17 -4.41,23.25 -11.43,33.29 -6.98,10.04 -16.32,17.87 -27.95,23.54 -11.59,5.61 -24.03,8.45 -37.32,8.45 -26.2,0 -46.95,-9.08 -62.25,-27.3 -15.32,-18.17 -22.96,-42.64 -22.96,-73.37l0 -6.67c0,-19.65 3.45,-37.05 10.32,-52.17 6.9,-15.12 16.74,-26.82 29.61,-35.04 12.83,-8.26 27.88,-12.37 45.08,-12.37 21.9,0 39.92,6.52 54.15,19.54 14.18,13.06 21.79,30.19 22.75,51.47l-21.2 0c-0.97,-15.61 -6.58,-28.21 -16.86,-37.78 -10.27,-9.62 -23.21,-14.43 -38.84,-14.43 -19.92,0 -35.34,7.21 -46.35,21.59 -11.01,14.38 -16.52,34.54 -16.52,60.51l0 6.44c0,25.45 5.51,45.31 16.52,59.57 11.01,14.26 26.51,21.39 46.55,21.39z"/>
   <path class="fil0" d="M6558.81 2370.34l0 51.08 41.32 0 0 18.07 -41.32 0 0 133.14c0,11.06 2.02,19.31 6.01,24.69 4,5.47 10.66,8.14 20,8.14 3.69,0 9.65,-0.61 17.87,-1.82l0.92 17.91c-5.76,2.05 -13.63,3.1 -23.6,3.1 -15.11,0 -26.12,-4.38 -33.02,-13.18 -6.86,-8.8 -10.31,-21.74 -10.31,-38.84l0 -133.14 -36.71 0 0 -18.07 36.71 0 0 -51.08 22.13 0z"/>
   <path class="fil0" d="M6654.03 2524.33c0,23.84 6.16,43.41 18.52,58.73 12.36,15.31 28.57,22.99 48.61,22.99 19.92,0 36.05,-7.68 48.41,-22.99 12.36,-15.32 18.52,-35.51 18.52,-60.59l0 -4.23c0,-15.27 -2.82,-29.18 -8.48,-41.86 -5.66,-12.67 -13.57,-22.48 -23.8,-29.41 -10.19,-6.95 -21.86,-10.43 -35.05,-10.43 -19.64,0 -35.7,7.71 -48.1,23.14 -12.44,15.43 -18.63,35.62 -18.63,60.59l0 4.06zm-22.14 -6.09c0,-19.18 3.72,-36.46 11.16,-51.81 7.45,-15.4 17.95,-27.33 31.51,-35.87 13.61,-8.55 29,-12.82 46.2,-12.82 26.6,0 48.11,9.3 64.59,27.94 16.47,18.62 24.69,43.3 24.69,74.04l0 4.61c0,19.31 -3.73,36.67 -11.17,52.09 -7.44,15.44 -17.91,27.34 -31.43,35.71 -13.53,8.33 -28.95,12.52 -46.28,12.52 -26.44,0 -47.92,-9.31 -64.46,-27.95 -16.55,-18.61 -24.81,-43.3 -24.81,-74.04l0 -4.42z"/>
   <polygon class="fil1" points="3439.2,452.66 3675.76,969.96 3913.47,452.66 4350.74,452.66 4350.74,1249.49 4111.8,1249.49 4117.8,653.38 4077.16,653.38 3777.3,1249.49 3575.44,1249.49 3275.51,653.38 3232.54,653.38 3238.49,1249.49 2999.55,1249.49 2999.55,452.66 "/>
   <path class="fil1" d="M5024.3 637.84l-47.81 0 -154.07 302.26 355.95 0 -154.07 -302.26zm238.94 476.68l-526.86 0 -68.08 135 -277.19 0 421.69 -796.88 377.52 0 416.97 796.88 -275.96 0 -68.09 -135z"/>
   <path class="fil1" d="M6194.86 855.27c112.33,-1.22 117.1,-1.22 137.39,-13.12 22.68,-14.34 29.85,-35.86 29.85,-90.82 0,-57.37 -10.73,-81.22 -41.79,-91.99 -16.74,-5.95 -19.14,-5.95 -125.45,-7.17l-303.42 0 0 203.1 303.42 0zm-545.98 -402.58l545.98 0c150.56,0 172.01,1.16 216.26,7.17 150.52,22.67 193.54,87.2 193.54,291.47 0,176.79 -32.29,246.11 -127.9,280.73 -53.75,17.9 -107.49,22.74 -279.52,22.74l-305.8 0 0 194.7 -242.56 0 0 -796.81z"/>
   <path class="fil1" d="M3456.78 1641.64c0.58,22.09 1.15,30.77 1.15,36.6 0,62.66 -16.26,91.11 -59.22,105.11 -31.36,9.85 -73.75,13.35 -159.67,13.35 -151.61,0 -200.41,-4.67 -231.72,-22.69 -25.58,-14.5 -37.18,-35.95 -41.79,-75.48 -1.8,-17.43 -2.91,-49.32 -2.91,-98.7 0,-86.57 2.33,-118.51 11.01,-139.96 20.93,-52.23 63.32,-62.14 266,-62.14 103.35,0 139.32,4.08 166.07,18.02 33.12,16.84 44.72,45.3 44.72,107.43l0 19.12 -117.94 0c-1.1,-25.53 -2.33,-30.72 -9.27,-36.56 -8.67,-7.51 -42.94,-11.07 -117.34,-11.07 -73.68,0 -95.19,2.4 -106.79,11.67 -13.98,11.6 -18.59,34.27 -18.59,92.91 0,99.28 1.75,100.44 126.03,100.44 129.47,0 131.22,-0.58 131.8,-58.05l118.46 0z"/>
   <path class="fil1" d="M3600.09 1790.9l-102.76 0 0 -274.68 102.76 0 0 274.68zm0 -310.12l-102.76 0 0 -77.25 102.76 0 0 77.25z"/>
   <path class="fil1" d="M3746.4 1516.2l0 41.81 5.25 0c18.53,-35.44 49.89,-48.8 116.7,-48.8 65.63,0 99.32,9.32 123.7,34.28 24.95,26.12 30.19,47.04 30.19,122.54l0 124.86 -102.77 0 0 -124.86c0,-44.14 -1.75,-53.99 -12.82,-64.48 -11.02,-11.02 -30.72,-15.1 -69.09,-15.1 -37.77,0 -58.05,5.25 -70.29,18.01 -12.71,13.35 -15.04,26.17 -15.04,76.66l0 109.77 -102.83 0 0 -274.69 97 0z"/>
   <path class="fil1" d="M4203.32 1452.88l0 63.32 162.59 0 0 73.73 -162.59 0 0 80.16c0,30.19 0.58,34.23 5.24,41.22 5.19,9.31 15.63,13.35 35.4,13.35 20.92,0 32.52,-4.04 37.18,-13.93 3.45,-6.41 4.03,-8.69 4.03,-37.13l94.09 0c-1.18,52.21 -5.26,69.07 -20.87,89.41 -20.94,26.12 -52.3,34.87 -123.12,34.87 -65.64,0 -92.34,-5.84 -112.68,-25.6 -14.53,-14.51 -20.29,-29.61 -21.45,-60.97 -0.6,-4.62 -0.6,-18.55 -0.6,-41.22l0 -80.16 -54.03 0 0 -73.73 54.03 0 0 -63.32 102.78 0z"/>
   <path class="fil1" d="M4508.69 1703.77c0,22.09 15.68,28.44 70.89,28.44 72.58,0 92.92,-6.93 92.92,-31.35 0,-11.02 -6.41,-19.18 -18.01,-23.21 -6.42,-2.33 -22.69,-2.91 -66.23,-2.91 -62.73,0 -79.57,6.36 -79.57,29.03zm-91.76 -101.61c2.91,-40.1 16.26,-61.55 48.2,-77.23 23.8,-11.09 71.42,-16.28 153.91,-16.28 90.01,0 110.93,4.03 134.13,27.28 17.43,18.61 23.26,39.53 23.26,89.43l0 165.49 -98.74 0 0 -37.71 -4.09 0c-8.69,18.02 -19.71,27.86 -38.3,35.45 -16.84,6.94 -42.96,9.27 -109.77,9.27 -91.16,0 -119.62,-20.34 -119.62,-85.4 0,-49.37 18.61,-76.6 58.65,-87.1 24.95,-6.94 51.7,-8.69 127.2,-8.69 47.56,0 61.5,4.03 77.81,21.47l4.61 0 0 -14.53c0,-42.96 -8.09,-48.73 -70.24,-48.73 -73.75,0 -81.32,2.28 -84.18,27.28l-102.83 0z"/>
   <path class="fil1" d="M4920.91 1516.2l0 41.81 5.25 0c18.52,-35.44 49.89,-48.8 116.69,-48.8 65.64,0 99.35,9.32 123.7,34.28 24.96,26.12 30.21,47.04 30.21,122.54l0 124.86 -102.78 0 0 -124.86c0,-44.14 -1.75,-53.99 -12.82,-64.48 -11.02,-11.02 -30.72,-15.1 -69.07,-15.1 -37.78,0 -58.07,5.25 -70.31,18.01 -12.71,13.35 -15.04,26.17 -15.04,76.66l0 109.77 -102.83 0 0 -274.69 97 0z"/>
   <path class="fil1" d="M5339.51 1650.36c0,60.4 11.6,69.65 88.9,69.65 37.71,0 65.57,-4.59 77.17,-12.75 11.67,-7.59 15.68,-22.1 15.68,-53.99 0,-56.94 -13.35,-67.38 -86.5,-67.38 -81.32,0 -95.25,9.27 -95.25,64.47zm284 140.54l-96.99 0 0 -36.02 -5.26 0c-19.76,33.11 -46.98,42.96 -121.37,42.96 -74.31,0 -109.75,-7.52 -133.55,-29.03 -22.6,-20.87 -29.61,-48.8 -29.61,-117.29 0,-69.72 11.02,-102.76 40.06,-121.95 25,-16.26 53.45,-20.92 124.28,-20.92 71.99,0 95.84,9.27 115.6,44.12l4.01 0 0 -149.23 102.83 0 0 387.36z"/>
   <path class="fil1" d="M5775.5 1790.9l-102.78 0 0 -274.68 102.78 0 0 274.68zm0 -310.12l-102.78 0 0 -77.25 102.78 0 0 77.25z"/>
   <path class="fil1" d="M5921.84 1516.2l0 41.81 5.24 0c18.54,-35.44 49.9,-48.8 116.71,-48.8 65.64,0 99.33,9.32 123.7,34.28 24.95,26.12 30.19,47.04 30.19,122.54l0 124.86 -102.76 0 0 -124.86c0,-44.14 -1.75,-53.99 -12.83,-64.48 -11.02,-11.02 -30.73,-15.1 -69.08,-15.1 -37.78,0 -58.05,5.25 -70.3,18.01 -12.7,13.35 -15.03,26.17 -15.03,76.66l0 109.77 -102.83 0 0 -274.69 96.99 0z"/>
   <path class="fil1" d="M6339.26 1703.77c0,22.09 15.68,28.44 70.82,28.44 72.64,0 92.94,-6.93 92.94,-31.35 0,-11.02 -6.37,-19.18 -17.97,-23.21 -6.41,-2.33 -22.67,-2.91 -66.21,-2.91 -62.72,0 -79.58,6.36 -79.58,29.03zm-91.76 -101.61c2.93,-40.1 16.28,-61.55 48.22,-77.23 23.78,-11.09 71.4,-16.28 153.89,-16.28 90.01,0 110.94,4.03 134.14,27.28 17.42,18.61 23.25,39.53 23.25,89.43l0 165.49 -98.75 0 0 -37.71 -4.08 0c-8.67,18.02 -19.76,27.86 -38.3,35.45 -16.84,6.94 -42.96,9.27 -109.75,9.27 -91.19,0 -119.62,-20.34 -119.62,-85.4 0,-49.37 18.59,-76.6 58.64,-87.1 24.94,-6.94 51.71,-8.69 127.19,-8.69 47.57,0 61.5,4.03 77.83,21.47l4.59 0 0 -14.53c0,-42.96 -8.1,-48.73 -70.23,-48.73 -73.74,0 -81.33,2.28 -84.19,27.28l-102.83 0z"/>
   <path class="fil2" d="M2100.09 627.27l-455.8 162.53c-88.38,-177.5 -251.49,-315.03 -450.73,-373.84 123.3,-111.23 282.68,-189.98 456.97,-221.23 193.01,94.96 351.16,248.8 449.56,432.54z"/>
   <path class="fil3" d="M724.12 1104.8c0,-462.5 321.26,-855.11 759.57,-976.35 -97.12,-28.75 -201.76,-43.79 -307.57,-43.79 -574.07,0 -1043.5,455.11 -1043.5,1020.14 0,565.11 469.43,1020.14 1043.5,1020.14 105.81,0 210.45,-14.97 307.57,-43.71 -438.31,-121.32 -759.57,-513.87 -759.57,-976.43z"/>
   <path class="fil2" d="M2100.09 1582.38c-98.4,183.8 -256.55,337.53 -449.56,432.54 -174.29,-31.25 -333.67,-110 -456.97,-221.27 199.24,-58.76 362.35,-196.23 450.73,-373.78l455.8 162.51z"/>
   <path class="fil0" d="M757.88 2337.66l26.74 0 -42.6 51.63 -19.38 -0.07 35.24 -51.56zm-88.73 186.65c0,23.83 6.21,43.44 18.57,58.72 12.33,15.31 28.52,22.98 48.56,22.98 19.94,0 36.1,-7.67 48.42,-22.98 12.37,-15.28 18.53,-35.47 18.53,-60.59l0 -4.22c0,-15.24 -2.79,-29.19 -8.45,-41.86 -5.66,-12.68 -13.61,-22.48 -23.8,-29.42 -10.19,-6.94 -21.91,-10.43 -35.05,-10.43 -19.69,0 -35.73,7.71 -48.13,23.14 -12.41,15.42 -18.65,35.62 -18.65,60.58l0 4.08zm-22.09 -6.09c0,-19.19 3.68,-36.43 11.13,-51.83 7.43,-15.35 17.94,-27.32 31.54,-35.85 13.57,-8.57 29,-12.83 46.2,-12.83 26.56,0 48.07,9.3 64.54,27.95 16.48,18.6 24.74,43.29 24.74,74.03l0 4.62c0,19.29 -3.73,36.66 -11.17,52.09 -7.44,15.43 -17.94,27.33 -31.43,35.7 -13.53,8.33 -28.95,12.51 -46.33,12.51 -26.43,0 -47.9,-9.29 -64.45,-27.94 -16.51,-18.6 -24.77,-43.3 -24.77,-74.03l0 -4.42z"/>
  </g>
 </g>
</svg>
