<?xml version="1.0" encoding="UTF-8"?>
<!DOCTYPE svg PUBLIC "-//W3C//DTD SVG 1.1//EN" "http://www.w3.org/Graphics/SVG/1.1/DTD/svg11.dtd">
<!-- Creator: CorelDRAW -->
<svg xmlns="http://www.w3.org/2000/svg" xml:space="preserve" width="10.1598mm" height="10.1598mm" version="1.1" style="shape-rendering:geometricPrecision; text-rendering:geometricPrecision; image-rendering:optimizeQuality; fill-rule:evenodd; clip-rule:evenodd"
viewBox="0 0 1015.98 1015.98"
 xmlns:xlink="http://www.w3.org/1999/xlink"
 xmlns:xodm="http://www.corel.com/coreldraw/odm/2003">
 <defs>
  <style type="text/css">
   <![CDATA[
    .fil0 {fill:#374151;fill-rule:nonzero}
   ]]>
  </style>
 </defs>
 <g id="Capa_x0020_1">
  <metadata id="CorelCorpID_0Corel-Layer"/>
  <g id="_2137995026816">
   <g>
    <path class="fil0" d="M788.86 665.82l-90.21 0 0 -177.37c0,-20.85 -3.67,-35.98 -11,-45.4 -7.33,-9.42 -17.01,-14.13 -29.04,-14.13 -6.39,0 -12.78,1.41 -19.17,4.21 -6.39,2.81 -12.59,6.72 -18.6,11.73 -6.02,5.01 -11.37,10.92 -16.07,17.73 -4.7,6.82 -8.37,14.24 -11,22.25l0 180.98 -90.21 0 0 -315.66 81.19 0 0 52.91c10.9,-18.84 26.31,-33.37 46.24,-43.59 19.92,-10.23 42.85,-15.34 68.78,-15.34 19.18,0 34.59,3.71 46.24,11.13 11.65,7.41 20.68,17.03 27.07,28.86 6.39,11.83 10.61,24.75 12.68,38.78 2.07,14.03 3.1,27.66 3.1,40.89l0 202.02z"/>
    <path class="fil0" d="M363.55 671.84c-25.19,0 -49.99,-4.31 -74.43,-12.93 -24.43,-8.62 -45.11,-21.14 -62.02,-37.58l32.14 -58.93c18.04,13.23 35.61,23.45 52.72,30.67 17.1,7.22 33.55,10.82 49.33,10.82 11.66,0 20.68,-2.2 27.07,-6.61 6.39,-4.41 9.58,-10.82 9.58,-19.24 0,-8.42 -4.04,-15.13 -12.12,-20.14 -8.08,-5.01 -22.27,-10.33 -42.57,-15.94 -19.92,-6.01 -36.74,-11.82 -50.46,-17.43 -13.72,-5.62 -24.91,-11.83 -33.55,-18.64 -8.65,-6.82 -14.85,-14.63 -18.61,-23.45 -3.76,-8.82 -5.64,-19.24 -5.64,-31.27 0,-16.04 3.01,-30.66 9.02,-43.89 6.02,-13.23 14.29,-24.45 24.81,-33.67 10.53,-9.22 23.03,-16.44 37.5,-21.65 14.47,-5.21 30.16,-7.82 47.08,-7.82 22.18,0 42.95,3.21 62.31,9.62 19.35,6.42 38.05,18.04 56.1,34.88l-34.96 57.72c-16.92,-12.43 -31.95,-21.44 -45.11,-27.06 -13.15,-5.61 -25.94,-8.42 -38.34,-8.42 -9.77,0 -18.04,2.11 -24.81,6.32 -6.77,4.21 -10.15,10.92 -10.15,20.14 0,8.82 3.67,15.43 11,19.84 7.33,4.41 20.95,9.22 40.88,14.43 21.05,6.02 38.81,12.03 53.28,18.04 14.47,6.02 26.22,12.73 35.24,20.14 9.02,7.42 15.6,15.94 19.73,25.56 4.14,9.62 6.21,21.04 6.21,34.27 0,31.27 -10.9,56.12 -32.71,74.56 -21.8,18.44 -51.31,27.66 -88.52,27.66z"/>
   </g>
   <path class="fil0" d="M209.48 84.65l597.02 0c34.19,0 65.36,14.03 88.03,36.65l0.23 0.22c22.56,22.68 36.56,53.81 36.56,87.96l0 597.02c0,34.19 -14.03,65.36 -36.65,88.03l-0.22 0.23c-22.68,22.56 -53.8,36.56 -87.95,36.56l-597.02 0c-34.19,0 -65.37,-14.03 -88.04,-36.65l-0.23 -0.22c-22.56,-22.68 -36.56,-53.8 -36.56,-87.95l0 -597.02c0,-34.19 14.03,-65.37 36.65,-88.04l0.22 -0.23c22.68,-22.56 53.81,-36.56 87.96,-36.56zm597.02 76.64l-597.02 0c-13.3,0 -25.35,5.38 -34,14.04l-0.15 0.15c-8.66,8.65 -14.04,20.7 -14.04,34l0 597.02c0,13.3 5.39,25.35 14.04,33.99l0.15 0.15c8.65,8.66 20.7,14.04 34,14.04l597.02 0c13.3,0 25.35,-5.39 33.99,-14.04l0.15 -0.15c8.65,-8.64 14.04,-20.69 14.04,-33.99l0 -597.02c0,-13.3 -5.38,-25.35 -14.04,-34l-0.15 -0.15c-8.64,-8.65 -20.69,-14.04 -33.99,-14.04z"/>
  </g>
 </g>
</svg>
