<?xml version="1.0" encoding="UTF-8"?>
<!DOCTYPE svg PUBLIC "-//W3C//DTD SVG 1.1//EN" "http://www.w3.org/Graphics/SVG/1.1/DTD/svg11.dtd">
<!-- Creator: CorelDRAW -->
<svg xmlns="http://www.w3.org/2000/svg" xml:space="preserve" width="10.1598mm" height="10.1598mm" version="1.1" style="shape-rendering:geometricPrecision; text-rendering:geometricPrecision; image-rendering:optimizeQuality; fill-rule:evenodd; clip-rule:evenodd"
viewBox="0 0 1015.98 1015.98"
 xmlns:xlink="http://www.w3.org/1999/xlink"
 xmlns:xodm="http://www.corel.com/coreldraw/odm/2003">
 <defs>
  <style type="text/css">
   <![CDATA[
    .fil0 {fill:#374151;fill-rule:nonzero}
   ]]>
  </style>
 </defs>
 <g id="Capa_x0020_1">
  <metadata id="CorelCorpID_0Corel-Layer"/>
  <g id="_2136524752528">
   <path class="fil0" d="M644.02 798.6c-5.57,-35.55 -15.86,-78.54 -34.9,-120.66 6.86,-11.17 13.55,-20.27 18.97,-26.73 75.71,49.05 156.46,26.18 202.05,-0.54 40.34,46.82 50.6,113.36 53.17,147.89l-239.29 0.04zm-511.28 58.92c8.3,-125.68 65.89,-204.54 92.19,-234.38 122.43,85.32 247.35,26.08 292.26,-0.94 69.47,74.67 82.86,187.37 85.36,235.25l-469.81 0.07zm798.51 -34.61c0.18,-5.75 3.64,-141.65 -81.96,-220.08 -8.42,-7.69 -21.18,-8.23 -30.24,-1.34 -3.8,2.86 -93.82,69.54 -178.93,0.26 -8.86,-7.26 -21.64,-7.05 -30.31,0.47 -1.23,1.04 -12.21,10.95 -25.94,29.23 -13.15,-20.24 -28.87,-39.49 -47.69,-56.76 -8.42,-7.7 -21.17,-8.24 -30.23,-1.34 -5.67,4.35 -140.42,104.56 -268.56,0.19 -8.89,-7.23 -21.68,-7.05 -30.34,0.47 -4.88,4.26 -119.5,106.13 -122.39,306.73 -0.07,6.33 2.38,12.39 6.79,16.88 4.44,4.52 10.48,7.05 16.79,7.05l518.4 -0.12c12.68,0 23.13,-10.07 23.51,-22.79 0.08,-1.99 0.45,-15.39 -0.93,-36.02l258.48 -0.07c12.71,0 23.12,-10.04 23.55,-22.76z"/>
   <path class="fil0" d="M490.88 456.52c-32.97,33.06 -76.8,51.27 -123.4,51.27l-0.04 0c-96.26,0 -174.66,-78.35 -174.69,-174.59 0,-46.6 18.2,-90.46 51.22,-123.52 33.05,-33.05 76.87,-51.22 123.47,-51.22 96.28,0 174.63,78.32 174.7,174.6 0,46.59 -18.21,90.42 -51.26,123.46zm154.4 -98.54c21.75,-21.79 50.62,-33.74 81.29,-33.74 63.35,0 114.94,51.55 114.98,114.95 0,30.63 -11.96,59.49 -33.74,81.28 -21.72,21.74 -50.57,33.74 -81.21,33.74l-0.03 0c-63.41,0 -114.99,-51.59 -115.03,-114.95 0,-30.67 11.99,-59.54 33.74,-81.28zm81.29 243.34l0.03 0c43.24,0 83.96,-16.91 114.55,-47.55 30.63,-30.67 47.54,-71.38 47.51,-114.58 -0.04,-89.38 -72.76,-162.1 -162.09,-162.1 -43.29,0 -83.96,16.91 -114.63,47.58 -9.25,9.25 -17.09,19.55 -23.77,30.41 0.72,-7.26 1.09,-14.62 1.09,-22.02 -0.08,-122.29 -99.57,-221.74 -221.82,-221.74 -59.16,0 -114.87,23.12 -156.78,65.06 -41.94,41.93 -65.03,97.64 -65.03,156.82 0.08,122.25 99.57,221.7 221.81,221.7l0.04 0c59.21,0 114.88,-23.12 156.75,-65.07 16.54,-16.54 30.01,-35.25 40.46,-55.45 -0.07,1.63 -0.26,3.25 -0.26,4.88 0.08,89.37 72.76,162.06 162.14,162.06z"/>
  </g>
 </g>
</svg>
