<?xml version="1.0" encoding="UTF-8"?>
<!DOCTYPE svg PUBLIC "-//W3C//DTD SVG 1.1//EN" "http://www.w3.org/Graphics/SVG/1.1/DTD/svg11.dtd">
<!-- Creator: CorelDRAW -->
<svg xmlns="http://www.w3.org/2000/svg" xml:space="preserve" width="10.1598mm" height="10.1598mm" version="1.1" style="shape-rendering:geometricPrecision; text-rendering:geometricPrecision; image-rendering:optimizeQuality; fill-rule:evenodd; clip-rule:evenodd"
viewBox="0 0 1015.98 1015.98"
 xmlns:xlink="http://www.w3.org/1999/xlink"
 xmlns:xodm="http://www.corel.com/coreldraw/odm/2003">
 <defs>
  <style type="text/css">
   <![CDATA[
    .fil0 {fill:#374151;fill-rule:nonzero}
   ]]>
  </style>
 </defs>
 <g id="Capa_x0020_1">
  <metadata id="CorelCorpID_0Corel-Layer"/>
  <g id="_2137989999296">
   <path class="fil0" d="M153.29 943.48l550.69 0 0 -541.19 -152.83 -147.45 -397.86 0 0 688.64zm563.3 25.42l-575.91 0c-6.8,0 -12.62,-5.73 -12.62,-12.71l0 -714.05c0,-7.09 5.82,-12.77 12.62,-12.77l415.32 0 9.22 3.59 160.1 154.77 3.9 9.13 0 559.33c0,6.98 -5.34,12.71 -12.63,12.71z"/>
   <path class="fil0" d="M158.14 938.67l540.98 0 0 -534.34 -149.91 -144.73 -391.07 0 0 679.07zm545.84 9.61l-550.69 0 -4.38 -4.8 0 -688.64 4.38 -4.8 397.86 0 3.4 1.35 152.82 147.45 1.46 3.45 0 541.19 -4.85 4.8zm-563.3 -714.11c-4.38,0 -7.78,3.55 -7.78,7.97l0 714.05c0,4.41 3.4,7.95 7.78,7.95l575.91 0c4.37,0 8.25,-3.54 8.25,-7.95l0 -559.33 -2.42 -5.73 -160.6 -154.73 -5.82 -2.23 -415.32 0zm575.91 739.49l-575.91 0c-9.71,0 -17.47,-7.82 -17.47,-17.47l0 -714.05c0,-9.66 7.76,-17.47 17.47,-17.47l415.32 0c4.84,0 9.22,1.69 12.12,4.84l160.6 154.78c3.4,3.3 5.34,7.85 5.34,12.57l0 559.33c0,9.65 -7.76,17.47 -17.47,17.47z"/>
   <path class="fil0" d="M875.25 786.61l-158.66 0c-6.78,0 -12.61,-5.72 -12.61,-12.71 0,-7.04 5.83,-12.76 12.61,-12.76l145.57 0 0 -546.53c0,-7.08 5.81,-12.74 13.09,-12.74 6.79,0 12.63,5.66 12.63,12.74l0 559.29c0,6.99 -5.84,12.71 -12.63,12.71z"/>
   <path class="fil0" d="M716.59 765.94c-4.36,0 -7.76,3.54 -7.76,7.96 0,4.37 3.4,7.96 7.76,7.96l158.66 0c4.37,0 7.77,-3.59 7.77,-7.96l0 -559.29c0,-4.41 -3.4,-8 -7.77,-8 -4.36,0 -8.24,3.59 -8.24,8l0 546.53 -4.85 4.8 -145.57 0zm158.66 25.43l-158.66 0c-9.7,0 -17.47,-7.86 -17.47,-17.47 0,-9.66 7.77,-17.47 17.47,-17.47l141.19 0 0 -541.82c0,-9.69 7.77,-17.5 17.47,-17.5 9.71,0 17.47,7.81 17.47,17.5l0 559.29c0,9.61 -7.76,17.47 -17.47,17.47z"/>
   <path class="fil0" d="M299.34 254.84c-7.29,0 -13.11,-5.72 -13.11,-12.7l0 -182.35c0,-6.98 5.82,-12.71 13.11,-12.71l426.48 0c7.27,0 13.09,5.73 13.09,12.71 0,7.04 -5.82,12.77 -13.09,12.77l-413.87 0 0 169.58c0,6.98 -5.83,12.7 -12.61,12.7z"/>
   <path class="fil0" d="M299.34 51.88c-4.38,0 -8.26,3.55 -8.26,7.91l0 182.35c0,4.36 3.88,7.9 8.26,7.9 4.36,0 7.75,-3.54 7.75,-7.9l0 -169.58 4.86 -4.8 413.87 0c4.36,0 8.24,-3.55 8.24,-7.97 0,-4.36 -3.88,-7.91 -8.24,-7.91l-426.48 0zm0 207.72c-9.71,0 -17.47,-7.86 -17.47,-17.46l0 -182.35c0,-9.6 7.76,-17.46 17.47,-17.46l426.48 0c9.69,0 17.47,7.86 17.47,17.46 0,9.66 -7.78,17.47 -17.47,17.47l-409.02 0 0 164.88c0,9.6 -7.77,17.46 -17.46,17.46z"/>
   <path class="fil0" d="M705.44 409.57l-149.44 0c-6.79,0 -12.62,-5.68 -12.62,-12.71l0 -154.72c0,-7.09 5.83,-12.77 12.62,-12.77 7.28,0 13.1,5.68 13.1,12.77l0 142.06 136.34 0c6.79,0 12.61,5.68 12.61,12.66 0,7.03 -5.82,12.71 -12.61,12.71z"/>
   <path class="fil0" d="M556 234.17c-4.37,0 -7.77,3.55 -7.77,7.97l0 154.72c0,4.36 3.4,7.95 7.77,7.95l149.44 0c4.37,0 7.77,-3.59 7.77,-7.95 0,-4.37 -3.4,-7.96 -7.77,-7.96l-136.34 0 -4.86 -4.7 0 -142.06c0,-4.42 -3.88,-7.97 -8.24,-7.97zm149.44 180.2l-149.44 0c-9.71,0 -17.46,-7.85 -17.46,-17.51l0 -154.72c0,-9.66 7.75,-17.47 17.46,-17.47 9.7,0 17.47,7.81 17.47,17.47l0 137.26 131.97 0c9.71,0 17.46,7.85 17.46,17.46 0,9.66 -7.75,17.51 -17.46,17.51z"/>
   <path class="fil0" d="M738.91 201.87l106.26 0 -106.26 -110.49 0 110.49zm136.34 25.41l-149.43 0c-6.8,0 -12.61,-5.68 -12.61,-12.67l0 -154.82c0,-5.14 3.38,-9.85 8.23,-11.78 4.86,-1.9 10.2,-0.79 13.59,2.95l149.45 154.78c3.4,3.69 4.36,9.07 2.42,13.83 -1.94,4.7 -6.8,7.71 -11.65,7.71z"/>
   <path class="fil0" d="M743.29 197.11l90.73 0 -90.73 -93.94 0 93.94zm101.88 9.5l-106.26 0 -4.85 -4.74 0 -110.49 2.91 -4.41 5.34 1.06 106.26 110.53 0.97 5.19 -4.37 2.86zm-119.35 -154.73l-2.92 0.58 -4.85 7.33 0 154.82c0,4.32 3.39,7.91 7.77,7.91l149.43 0 7.28 -4.84 -1.94 -8.64 -148.95 -154.72 -5.82 -2.44zm149.43 180.2l-149.43 0c-9.23,0 -17.47,-7.85 -17.47,-17.47l0 -154.82c0,-7.12 4.36,-13.49 11.16,-16.2 6.79,-2.67 14.07,-1.02 18.92,4.13l149.45 154.76c4.84,5.05 6.29,12.48 3.38,18.93 -2.9,6.45 -9.22,10.67 -16.01,10.67z"/>
  </g>
 </g>
</svg>
