<?xml version="1.0" encoding="UTF-8"?>
<!DOCTYPE svg PUBLIC "-//W3C//DTD SVG 1.1//EN" "http://www.w3.org/Graphics/SVG/1.1/DTD/svg11.dtd">
<!-- Creator: CorelDRAW -->
<svg xmlns="http://www.w3.org/2000/svg" xml:space="preserve" width="76.1998mm" height="16.9332mm" version="1.1" style="shape-rendering:geometricPrecision; text-rendering:geometricPrecision; image-rendering:optimizeQuality; fill-rule:evenodd; clip-rule:evenodd"
viewBox="0 0 7619.98 1693.32"
 xmlns:xlink="http://www.w3.org/1999/xlink"
 xmlns:xodm="http://www.corel.com/coreldraw/odm/2003">
 <defs>
  <style type="text/css">
   <![CDATA[
    .fil1 {fill:#005B17}
    .fil2 {fill:#00833F}
    .fil0 {fill:black;fill-rule:nonzero}
    .fil3 {fill:#00833F;fill-rule:nonzero}
    .fil4 {fill:#4D4D4D;fill-rule:nonzero}
   ]]>
  </style>
 </defs>
 <g id="Capa_x0020_1">
  <metadata id="CorelCorpID_0Corel-Layer"/>
  <g id="_2137819516816">
   <g>
    <polygon class="fil0" points="2104.4,452 2247.56,765.06 2391.42,452 2656.04,452 2656.04,934.22 2511.44,934.22 2515.07,573.47 2490.48,573.47 2309.01,934.22 2186.85,934.22 2005.34,573.47 1979.34,573.47 1982.94,934.22 1838.34,934.22 1838.34,452 "/>
    <path class="fil0" d="M3063.66 564.07l-28.93 0 -93.24 182.92 215.41 0 -93.24 -182.92zm144.6 288.47l-318.84 0 -41.2 81.7 -167.75 0 255.2 -482.25 228.46 0 252.34 482.25 -167 0 -41.21 -81.7z"/>
    <path class="fil0" d="M3772.05 695.65c67.98,-0.74 70.87,-0.74 83.15,-7.94 13.72,-8.68 18.06,-21.7 18.06,-54.96 0,-34.72 -6.49,-49.15 -25.29,-55.67 -10.13,-3.6 -11.58,-3.6 -75.92,-4.34l-183.62 0 0 122.91 183.62 0zm-330.41 -243.63l330.41 0c91.12,0 104.1,0.7 130.88,4.34 91.09,13.72 117.12,52.77 117.12,176.39 0,106.99 -19.54,148.94 -77.4,169.89 -32.53,10.83 -65.05,13.76 -169.16,13.76l-185.06 0 0 117.83 -146.79 0 0 -482.21z"/>
    <path class="fil0" d="M2115.04 1171.54c0.35,13.37 0.7,18.62 0.7,22.15 0,37.92 -9.84,55.14 -35.84,63.61 -18.98,5.96 -44.63,8.08 -96.63,8.08 -91.75,0 -121.28,-2.83 -140.23,-13.73 -15.48,-8.78 -22.5,-21.76 -25.29,-45.68 -1.09,-10.55 -1.76,-29.85 -1.76,-59.73 0,-52.39 1.41,-71.72 6.66,-84.7 12.67,-31.61 38.32,-37.61 160.98,-37.61 62.54,0 84.31,2.47 100.5,10.91 20.04,10.19 27.06,27.41 27.06,65.01l0 11.57 -71.37 0c-0.67,-15.45 -1.41,-18.59 -5.61,-22.12 -5.25,-4.55 -25.99,-6.7 -71.01,-6.7 -44.59,0 -57.61,1.45 -64.63,7.06 -8.46,7.02 -11.25,20.74 -11.25,56.23 0,60.08 1.06,60.78 76.27,60.78 78.35,0 79.41,-0.35 79.76,-35.13l71.69 0z"/>
    <path class="fil0" d="M2201.77 1261.87l-62.19 0 0 -166.23 62.19 0 0 166.23zm0 -187.68l-62.19 0 0 -46.75 62.19 0 0 46.75z"/>
    <path class="fil0" d="M2290.31 1095.63l0 25.3 3.18 0c11.21,-21.45 30.19,-29.53 70.62,-29.53 39.72,0 60.11,5.64 74.86,20.74 15.1,15.81 18.27,28.47 18.27,74.16l0 75.56 -62.19 0 0 -75.56c0,-26.71 -1.06,-32.67 -7.76,-39.02 -6.67,-6.67 -18.59,-9.14 -41.81,-9.14 -22.86,0 -35.13,3.18 -42.54,10.9 -7.69,8.08 -9.1,15.84 -9.1,46.39l0 66.43 -62.23 0 0 -166.23 58.7 0z"/>
    <path class="fil0" d="M2566.83 1057.31l0 38.32 98.39 0 0 44.62 -98.39 0 0 48.51c0,18.27 0.35,20.71 3.17,24.94 3.14,5.64 9.46,8.08 21.42,8.08 12.66,0 19.68,-2.44 22.5,-8.43 2.09,-3.88 2.44,-5.26 2.44,-22.47l56.94 0c-0.71,31.6 -3.18,41.8 -12.63,54.11 -12.67,15.81 -31.65,21.1 -74.51,21.1 -39.72,0 -55.88,-3.53 -68.19,-15.49 -8.79,-8.78 -12.28,-17.92 -12.98,-36.9 -0.36,-2.79 -0.36,-11.22 -0.36,-24.94l0 -48.51 -32.7 0 0 -44.62 32.7 0 0 -38.32 62.2 0z"/>
    <path class="fil0" d="M2751.63 1209.14c0,13.37 9.49,17.21 42.9,17.21 43.92,0 56.23,-4.19 56.23,-18.97 0,-6.67 -3.88,-11.61 -10.9,-14.05 -3.88,-1.41 -13.73,-1.76 -40.08,-1.76 -37.96,0 -48.15,3.85 -48.15,17.57zm-55.53 -61.49c1.76,-24.27 9.84,-37.25 29.17,-46.74 14.4,-6.71 43.22,-9.85 93.14,-9.85 54.47,0 67.13,2.44 81.17,16.51 10.55,11.26 14.08,23.92 14.08,54.12l0 100.15 -59.76 0 0 -22.82 -2.47 0c-5.26,10.9 -11.93,16.86 -23.18,21.45 -10.19,4.2 -26,5.61 -66.43,5.61 -55.17,0 -72.39,-12.31 -72.39,-51.68 0,-29.88 11.26,-46.36 35.49,-52.71 15.1,-4.2 31.29,-5.26 76.98,-5.26 28.78,0 37.22,2.44 47.09,12.99l2.79 0 0 -8.79c0,-26 -4.9,-29.49 -42.51,-29.49 -44.63,0 -49.21,1.38 -50.94,16.51l-62.23 0z"/>
    <path class="fil0" d="M3001.09 1095.63l0 25.3 3.18 0c11.21,-21.45 30.19,-29.53 70.62,-29.53 39.72,0 60.12,5.64 74.86,20.74 15.1,15.81 18.28,28.47 18.28,74.16l0 75.56 -62.2 0 0 -75.56c0,-26.71 -1.06,-32.67 -7.76,-39.02 -6.67,-6.67 -18.59,-9.14 -41.8,-9.14 -22.86,0 -35.14,3.18 -42.55,10.9 -7.69,8.08 -9.1,15.84 -9.1,46.39l0 66.43 -62.23 0 0 -166.23 58.7 0z"/>
    <path class="fil0" d="M3254.42 1176.82c0,36.55 7.02,42.15 53.8,42.15 22.82,0 39.68,-2.78 46.7,-7.72 7.06,-4.59 9.49,-13.37 9.49,-32.67 0,-34.46 -8.08,-40.78 -52.35,-40.78 -49.21,0 -57.64,5.61 -57.64,39.02zm171.87 85.05l-58.7 0 0 -21.8 -3.18 0c-11.96,20.04 -28.43,26 -73.45,26 -44.97,0 -66.42,-4.55 -80.82,-17.57 -13.68,-12.63 -17.92,-29.53 -17.92,-70.98 0,-42.19 6.67,-62.19 24.24,-73.8 15.13,-9.84 32.35,-12.66 75.21,-12.66 43.57,0 58,5.61 69.96,26.7l2.43 0 0 -90.31 62.23 0 0 234.42z"/>
    <path class="fil0" d="M3518.27 1261.87l-62.2 0 0 -166.23 62.2 0 0 166.23zm0 -187.68l-62.2 0 0 -46.75 62.2 0 0 46.75z"/>
    <path class="fil0" d="M3606.83 1095.63l0 25.3 3.17 0c11.22,-21.45 30.2,-29.53 70.63,-29.53 39.72,0 60.11,5.64 74.86,20.74 15.1,15.81 18.27,28.47 18.27,74.16l0 75.56 -62.19 0 0 -75.56c0,-26.71 -1.06,-32.67 -7.76,-39.02 -6.67,-6.67 -18.6,-9.14 -41.81,-9.14 -22.86,0 -35.13,3.18 -42.54,10.9 -7.69,8.08 -9.1,15.84 -9.1,46.39l0 66.43 -62.23 0 0 -166.23 58.7 0z"/>
    <path class="fil0" d="M3859.44 1209.14c0,13.37 9.49,17.21 42.86,17.21 43.96,0 56.24,-4.19 56.24,-18.97 0,-6.67 -3.85,-11.61 -10.87,-14.05 -3.88,-1.41 -13.72,-1.76 -40.07,-1.76 -37.96,0 -48.16,3.85 -48.16,17.57zm-55.53 -61.49c1.77,-24.27 9.85,-37.25 29.18,-46.74 14.39,-6.71 43.21,-9.85 93.13,-9.85 54.47,0 67.14,2.44 81.18,16.51 10.54,11.26 14.07,23.92 14.07,54.12l0 100.15 -59.76 0 0 -22.82 -2.47 0c-5.25,10.9 -11.96,16.86 -23.18,21.45 -10.19,4.2 -26,5.61 -66.42,5.61 -55.18,0 -72.39,-12.31 -72.39,-51.68 0,-29.88 11.25,-46.36 35.49,-52.71 15.09,-4.2 31.29,-5.26 76.97,-5.26 28.79,0 37.22,2.44 47.1,12.99l2.78 0 0 -8.79c0,-26 -4.9,-29.49 -42.5,-29.49 -44.63,0 -49.22,1.38 -50.95,16.51l-62.23 0z"/>
   </g>
   <path class="fil1" d="M1294.01 557.67l-275.84 98.36c-53.48,-107.42 -152.19,-190.65 -272.77,-226.24 74.62,-67.31 171.07,-114.97 276.55,-133.88 116.8,57.47 212.51,150.57 272.06,261.76z"/>
   <path class="fil2" d="M461.31 846.66c0,-279.89 194.42,-517.49 459.67,-590.86 -58.77,-17.4 -122.1,-26.5 -186.13,-26.5 -347.41,0 -631.5,275.42 -631.5,617.36 0,341.99 284.09,617.36 631.5,617.36 64.03,0 127.36,-9.06 186.13,-26.45 -265.25,-73.42 -459.67,-310.98 -459.67,-590.91z"/>
   <path class="fil1" d="M1294.01 1135.68c-59.55,111.23 -155.26,204.26 -272.06,261.76 -105.48,-18.91 -201.93,-66.57 -276.55,-133.91 120.58,-35.56 219.29,-118.75 272.77,-226.2l275.84 98.35z"/>
   <polygon class="fil3" points="4425.82,1390.95 4397.18,1390.95 4397.18,302.42 4425.82,302.42 "/>
   <g>
    <polygon class="fil4" points="4841.83,374.32 4931.96,590 5022.42,374.32 5049.97,374.32 5049.97,618.68 5029.33,618.68 5029.33,512.29 5030.99,403.17 4940.01,618.68 4924.06,618.68 4833.43,404.02 4835.13,511.62 4835.13,618.68 4814.45,618.68 4814.45,374.32 "/>
    <path class="fil4" d="M5315.41 529.74c0,23.18 4.66,41.42 13.94,54.79 9.27,13.4 22.36,20.07 39.26,20.07 24.73,0 42.3,-10.9 52.71,-32.74l0 -85.26c-10.41,-23.6 -27.87,-35.42 -52.36,-35.42 -16.89,0 -30.05,6.63 -39.44,19.9 -9.42,13.26 -14.11,32.8 -14.11,58.66zm-20.32 -3.53c0,-28.18 6.32,-50.65 18.91,-67.38 12.56,-16.72 29.67,-25.08 51.26,-25.08 24.52,0 43.18,9.67 56.06,29.03l0 -101.88 19.96 0 0 257.81 -18.77 0 -0.84 -24.16c-12.88,18.34 -31.79,27.51 -56.73,27.51 -20.95,0 -37.82,-8.43 -50.62,-25.25 -12.81,-16.87 -19.23,-39.59 -19.23,-68.23l0 -2.37z"/>
    <path class="fil4" d="M5612.71 595.7c-12.1,17.57 -31.4,26.36 -57.89,26.36 -19.37,0 -34.08,-5.61 -44.17,-16.87 -10.05,-11.25 -15.2,-27.9 -15.45,-49.95l0 -118.14 20 0 0 115.64c0,34.57 13.97,51.85 41.95,51.85 29.1,0 47.52,-12.03 55.21,-36.08l0 -131.41 20.14 0 0 181.61 -19.44 0 -0.35 -23.01z"/>
    <polygon class="fil4" points="5708.95,618.72 5688.8,618.72 5688.8,360.91 5708.95,360.91 "/>
    <path class="fil4" d="M5774.25 530.75c0,21.69 5.61,39.54 16.86,53.44 11.26,13.94 26,20.92 44.24,20.92 18.14,0 32.81,-6.98 44.07,-20.92 11.25,-13.9 16.86,-32.28 16.86,-55.14l0 -3.84c0,-13.87 -2.58,-26.57 -7.73,-38.1 -5.15,-11.54 -12.35,-20.46 -21.66,-26.78 -9.28,-6.31 -19.9,-9.49 -31.89,-9.49 -17.89,0 -32.49,7.02 -43.78,21.06 -11.32,14.04 -16.97,32.42 -16.97,55.14l0 3.71zm-20.14 -5.54c0,-17.46 3.39,-33.16 10.16,-47.17 6.77,-13.97 16.33,-24.87 28.71,-32.63 12.35,-7.8 26.36,-11.68 42.02,-11.68 24.2,0 43.78,8.47 58.77,25.44 15,16.93 22.48,39.4 22.48,67.38l0 4.2c0,17.57 -3.39,33.37 -10.16,47.41 -6.78,14.04 -16.3,24.87 -28.62,32.49 -12.31,7.59 -26.35,11.4 -42.12,11.4 -24.06,0 -43.6,-8.47 -58.66,-25.44 -15.07,-16.93 -22.58,-39.4 -22.58,-67.38l0 -4.02z"/>
    <path class="fil4" d="M6056.99 529.74c0,23.18 4.66,41.42 13.93,54.79 9.28,13.4 22.37,20.07 39.27,20.07 24.73,0 42.3,-10.9 52.7,-32.74l0 -85.26c-10.4,-23.6 -27.87,-35.42 -52.35,-35.42 -16.9,0 -30.06,6.63 -39.44,19.9 -9.42,13.26 -14.11,32.8 -14.11,58.66zm-20.32 -3.53c0,-28.18 6.31,-50.65 18.91,-67.38 12.56,-16.72 29.67,-25.08 51.26,-25.08 24.51,0 43.18,9.67 56.05,29.03l0 -101.88 19.97 0 0 257.81 -18.77 0 -0.84 -24.16c-12.88,18.34 -31.79,27.51 -56.73,27.51 -20.96,0 -37.82,-8.43 -50.62,-25.25 -12.81,-16.87 -19.23,-39.59 -19.23,-68.23l0 -2.37z"/>
    <path class="fil4" d="M6304.11 450.86c-15.1,0 -27.84,5.54 -38.17,16.61 -10.38,11.08 -16.66,25.97 -18.91,44.66l108.93 0 0 -2.18c-0.56,-17.46 -5.53,-31.68 -14.92,-42.65 -9.42,-10.97 -21.73,-16.44 -36.93,-16.44zm3.7 171.2c-15.45,0 -29.42,-3.81 -41.87,-11.43 -12.49,-7.58 -22.19,-18.2 -29.14,-31.78 -6.95,-13.62 -10.41,-28.86 -10.41,-45.76l0 -7.2c0,-17.46 3.39,-33.19 10.16,-47.16 6.77,-14.01 16.19,-24.98 28.29,-32.99 12.07,-8.01 25.16,-11.99 39.27,-11.99 22.05,0 39.51,7.51 52.45,22.58 12.92,15.02 19.37,35.59 19.37,61.66l0 11.25 -129.57 0 0 3.85c0,20.6 5.92,37.75 17.71,51.47 11.81,13.69 26.67,20.53 44.55,20.53 10.76,0 20.25,-1.94 28.47,-5.85 8.22,-3.92 15.7,-10.2 22.4,-18.81l12.6 9.56c-14.78,21.38 -36.2,32.07 -64.28,32.07z"/>
    <path class="fil4" d="M4841.83 887.81l98.04 0 -49.04 -133.11 -49 133.11zm104.56 17.46l-110.95 0 -25.15 68.65 -21.66 0 92.46 -244.4 19.65 0 92.5 244.4 -21.48 0 -25.37 -68.65z"/>
    <path class="fil4" d="M5038.42 884.95c0,23.17 4.65,41.45 13.93,54.78 9.28,13.41 22.37,20.08 39.27,20.08 24.73,0 42.29,-10.9 52.7,-32.74l0 -85.27c-10.41,-23.6 -27.87,-35.42 -52.35,-35.42 -16.9,0 -30.06,6.64 -39.44,19.9 -9.42,13.26 -14.11,32.81 -14.11,58.67zm-20.32 -3.53c0,-28.19 6.31,-50.66 18.91,-67.38 12.56,-16.72 29.67,-25.08 51.26,-25.08 24.51,0 43.18,9.66 56.05,29.03l0 -101.88 19.97 0 0 257.81 -18.77 0 -0.85 -24.17c-12.87,18.35 -31.78,27.52 -56.72,27.52 -20.96,0 -37.82,-8.43 -50.63,-25.26 -12.8,-16.83 -19.22,-39.58 -19.22,-68.23l0 -2.36z"/>
    <path class="fil4" d="M5237.19 792.3l0.67 29.53c6.71,-10.97 15.1,-19.19 25.19,-24.66 10.06,-5.5 21.24,-8.22 33.55,-8.22 28.65,0 46.85,11.75 54.58,35.24 6.49,-11.32 15.13,-20 26,-26.1 10.86,-6.11 22.82,-9.14 35.91,-9.14 38.95,0 58.81,21.27 59.58,63.78l0 121.18 -20.14 0 0 -119.66c-0.11,-16.23 -3.6,-28.26 -10.48,-36.09 -6.88,-7.83 -18.1,-11.75 -33.65,-11.75 -14.43,0.21 -26.64,4.87 -36.59,14.01 -9.94,9.1 -15.48,20.21 -16.61,33.3l0 120.19 -20.15 0 0 -121.18c-0.1,-15.56 -3.77,-27.16 -11,-34.82 -7.2,-7.69 -18.31,-11.5 -33.3,-11.5 -12.67,0 -23.5,3.6 -32.57,10.83 -9.06,7.2 -15.8,17.92 -20.14,32.14l0 124.53 -20.14 0 0 -181.61 19.29 0z"/>
    <path class="fil4" d="M5547.76 973.89l-20.14 0 0 -181.61 20.14 0 0 181.61zm-23.67 -234.03c0,-3.77 1.23,-6.99 3.7,-9.6 2.44,-2.61 5.83,-3.91 10.06,-3.91 4.27,0 7.65,1.3 10.16,3.91 2.5,2.61 3.77,5.83 3.77,9.6 0,3.77 -1.27,6.95 -3.77,9.49 -2.51,2.57 -5.89,3.84 -10.16,3.84 -4.23,0 -7.62,-1.27 -10.06,-3.84 -2.47,-2.54 -3.7,-5.72 -3.7,-9.49z"/>
    <path class="fil4" d="M5623.16 792.3l0.67 31.04c6.85,-11.18 15.35,-19.72 25.51,-25.57 10.19,-5.89 21.45,-8.82 33.76,-8.82 19.44,0 33.94,5.47 43.46,16.44 9.49,10.97 14.32,27.41 14.43,49.35l0 119.17 -19.97 0 0 -119.34c-0.1,-16.23 -3.56,-28.3 -10.33,-36.27 -6.78,-7.94 -17.61,-11.89 -32.46,-11.89 -12.42,0 -23.42,3.88 -32.99,11.64 -9.59,7.8 -16.65,18.28 -21.23,31.47l0 124.39 -19.97 0 0 -181.61 19.12 0z"/>
    <path class="fil4" d="M5817.04 973.89l-20.15 0 0 -181.61 20.15 0 0 181.61zm-23.64 -234.03c0,-3.77 1.2,-6.99 3.67,-9.6 2.47,-2.61 5.82,-3.91 10.09,-3.91 4.23,0 7.62,1.3 10.16,3.91 2.5,2.61 3.77,5.83 3.77,9.6 0,3.77 -1.27,6.95 -3.77,9.49 -2.54,2.57 -5.93,3.84 -10.16,3.84 -4.27,0 -7.62,-1.27 -10.09,-3.84 -2.47,-2.54 -3.67,-5.72 -3.67,-9.49z"/>
    <path class="fil4" d="M5982.09 927.75c0,-9.95 -3.99,-17.95 -12,-23.99 -8,-6.06 -20.07,-10.79 -36.19,-14.21 -16.09,-3.39 -28.61,-7.31 -37.5,-11.75 -8.89,-4.41 -15.49,-9.81 -19.79,-16.19 -4.31,-6.35 -6.49,-14.08 -6.49,-23.15 0,-14.32 5.99,-26.17 17.99,-35.52 11.96,-9.31 27.3,-14.01 45.96,-14.01 20.25,0 36.52,5.01 48.76,15.03 12.28,10.02 18.38,23.07 18.38,39.2l-20.15 0c0,-10.62 -4.44,-19.48 -13.33,-26.53 -8.89,-7.06 -20.11,-10.55 -33.66,-10.55 -13.19,0 -23.81,2.93 -31.78,8.78 -8.01,5.9 -12.03,13.52 -12.03,22.93 0,9.07 3.35,16.09 10.02,21.07 6.63,4.97 18.77,9.52 36.41,13.68 17.63,4.13 30.83,8.54 39.61,13.27 8.79,4.69 15.31,10.33 19.55,16.93 4.26,6.6 6.38,14.61 6.38,23.99 0,15.35 -6.17,27.59 -18.55,36.76 -12.35,9.17 -28.51,13.79 -48.41,13.79 -21.16,0 -38.31,-5.11 -51.47,-15.38 -13.12,-10.23 -19.72,-23.18 -19.72,-38.84l20.15 0c0.77,11.75 5.75,20.89 14.85,27.45 9.14,6.52 21.17,9.8 36.19,9.8 13.97,0 25.26,-3.06 33.91,-9.24 8.6,-6.14 12.91,-13.93 12.91,-23.32z"/>
    <path class="fil4" d="M6080.32 745.8l0 46.5 37.61 0 0 16.44 -37.61 0 0 121.18c0,10.05 1.84,17.56 5.47,22.5 3.63,4.94 9.7,7.38 18.2,7.38 3.35,0 8.79,-0.53 16.27,-1.66l0.84 16.3c-5.25,1.87 -12.41,2.82 -21.48,2.82 -13.76,0 -23.78,-3.99 -30.06,-12 -6.24,-8 -9.38,-19.79 -9.38,-35.34l0 -121.18 -33.41 0 0 -16.44 33.41 0 0 -46.5 20.14 0z"/>
    <path class="fil4" d="M6245.19 809.42c-4.27,-0.78 -8.78,-1.16 -13.58,-1.16 -12.56,0 -23.14,3.49 -31.82,10.47 -8.68,6.99 -14.85,17.15 -18.56,30.45l0 124.74 -19.96 0 0 -181.61 19.65 0 0.31 28.86c10.66,-21.49 27.7,-32.25 51.19,-32.25 5.61,0 10.02,0.75 13.27,2.19l-0.5 18.31z"/>
    <path class="fil4" d="M6323.45 959.47c13.44,0 25.43,-3.24 36.02,-9.73 10.55,-6.49 18.24,-15.17 23.07,-26l0 -39.97 -35.91 0c-20.04,0.25 -35.7,3.88 -47.03,11.01 -11.29,7.09 -16.93,16.86 -16.93,29.28 0,10.19 3.77,18.62 11.32,25.36 7.55,6.7 17.36,10.05 29.46,10.05zm63.11 14.43c-2.01,-5.68 -3.31,-14.14 -3.84,-25.33 -7.06,9.18 -16.06,16.27 -26.96,21.24 -10.9,4.98 -22.47,7.44 -34.67,7.44 -17.43,0 -31.58,-4.86 -42.37,-14.6 -10.8,-9.74 -16.2,-22.01 -16.2,-36.9 0,-17.71 7.34,-31.68 22.09,-41.98 14.71,-10.3 35.21,-15.42 61.49,-15.42l36.44 0 0 -20.67c0,-12.98 -4.02,-23.18 -11.99,-30.62 -8.01,-7.45 -19.69,-11.18 -35,-11.18 -14.01,0 -25.58,3.59 -34.75,10.76 -9.17,7.16 -13.76,15.76 -13.76,25.85l-20.14 -0.17c0,-14.43 6.7,-26.95 20.14,-37.5 13.41,-10.59 29.92,-15.88 49.5,-15.88 20.25,0 36.23,5.08 47.9,15.21 11.72,10.12 17.71,24.23 18.07,42.37l0 85.93c0,17.57 1.83,30.73 5.54,39.44l0 2.01 -21.49 0z"/>
    <path class="fil4" d="M6524.91 960.32c13.97,0 25.72,-3.95 35.17,-11.82 9.46,-7.9 14.57,-18.13 15.35,-30.66l19.29 0c-0.56,11.08 -4.02,21.17 -10.4,30.31 -6.39,9.13 -14.85,16.26 -25.44,21.38 -10.55,5.15 -21.87,7.72 -33.97,7.72 -23.85,0 -42.72,-8.25 -56.66,-24.83 -13.93,-16.55 -20.88,-38.81 -20.88,-66.79l0 -6.06c0,-17.89 3.14,-33.73 9.38,-47.49 6.28,-13.76 15.24,-24.41 26.96,-31.89 11.67,-7.51 25.36,-11.25 41.02,-11.25 19.94,0 36.34,5.93 49.29,17.78 12.91,11.89 19.82,27.48 20.7,46.85l-19.29 0c-0.88,-14.22 -6,-25.68 -15.35,-34.4 -9.35,-8.75 -21.13,-13.12 -35.35,-13.12 -18.13,0 -32.17,6.56 -42.19,19.65 -10.02,13.09 -15.03,31.43 -15.03,55.07l0 5.85c0,23.18 5.01,41.24 15.03,54.22 10.02,12.99 24.13,19.48 42.37,19.48z"/>
    <path class="fil4" d="M6659.08 973.89l-20.14 0 0 -181.61 20.14 0 0 181.61zm-23.67 -234.03c0,-3.77 1.2,-6.99 3.67,-9.6 2.47,-2.61 5.82,-3.91 10.09,-3.91 4.27,0 7.62,1.3 10.12,3.91 2.54,2.61 3.81,5.83 3.81,9.6 0,3.77 -1.27,6.95 -3.81,9.49 -2.5,2.57 -5.85,3.84 -10.12,3.84 -4.27,0 -7.62,-1.27 -10.09,-3.84 -2.47,-2.54 -3.67,-5.72 -3.67,-9.49z"/>
    <path class="fil4" d="M6805.13 716.09l24.34 0 -38.77 46.99 -17.64 -0.07 32.07 -46.92zm-80.75 169.87c0,21.69 5.65,39.54 16.9,53.44 11.22,13.94 25.96,20.92 44.2,20.92 18.14,0 32.85,-6.98 44.06,-20.92 11.26,-13.9 16.87,-32.28 16.87,-55.14l0 -3.84c0,-13.87 -2.54,-26.57 -7.69,-38.1 -5.15,-11.54 -12.39,-20.46 -21.66,-26.78 -9.28,-6.31 -19.94,-9.49 -31.9,-9.49 -17.92,0 -32.52,7.02 -43.81,21.06 -11.29,14.04 -16.97,32.42 -16.97,55.14l0 3.71zm-20.11 -5.54c0,-17.47 3.35,-33.16 10.13,-47.17 6.77,-13.97 16.33,-24.87 28.71,-32.63 12.35,-7.8 26.39,-11.68 42.05,-11.68 24.17,0 43.75,8.47 58.74,25.44 15,16.93 22.51,39.4 22.51,67.38l0 4.2c0,17.56 -3.39,33.37 -10.16,47.41 -6.77,14.04 -16.33,24.87 -28.61,32.49 -12.31,7.58 -26.35,11.39 -42.16,11.39 -24.06,0 -43.6,-8.46 -58.66,-25.43 -15.03,-16.93 -22.55,-39.41 -22.55,-67.38l0 -4.02z"/>
    <path class="fil4" d="M6928.7 792.3l0.67 31.04c6.84,-11.18 15.34,-19.72 25.5,-25.57 10.2,-5.89 21.45,-8.82 33.76,-8.82 19.44,0 33.94,5.47 43.47,16.44 9.49,10.97 14.32,27.41 14.42,49.35l0 119.17 -19.96 0 0 -119.34c-0.11,-16.23 -3.57,-28.3 -10.34,-36.27 -6.77,-7.94 -17.6,-11.89 -32.46,-11.89 -12.45,0 -23.42,3.88 -32.98,11.64 -9.6,7.8 -16.65,18.28 -21.24,31.47l0 124.39 -19.96 0 0 -181.61 19.12 0z"/>
    <path class="fil4" d="M7197.68 884.95c0,23.17 4.65,41.45 13.93,54.78 9.28,13.41 22.37,20.08 39.26,20.08 24.73,0 42.3,-10.9 52.71,-32.74l0 -85.27c-10.41,-23.6 -27.87,-35.42 -52.35,-35.42 -16.9,0 -30.06,6.64 -39.44,19.9 -9.42,13.26 -14.11,32.81 -14.11,58.67zm-20.32 -3.53c0,-28.19 6.31,-50.66 18.9,-67.38 12.56,-16.72 29.67,-25.08 51.26,-25.08 24.52,0 43.18,9.66 56.06,29.03l0 -101.88 19.97 0 0 257.81 -18.77 0 -0.85 -24.17c-12.87,18.35 -31.78,27.52 -56.72,27.52 -20.96,0 -37.82,-8.43 -50.63,-25.26 -12.8,-16.83 -19.22,-39.58 -19.22,-68.23l0 -2.36z"/>
    <path class="fil4" d="M7444.8 806.06c-15.1,0 -27.83,5.54 -38.17,16.62 -10.37,11.08 -16.65,25.96 -18.91,44.66l108.94 0 0 -2.19c-0.56,-17.46 -5.54,-31.68 -14.92,-42.65 -9.42,-10.97 -21.73,-16.44 -36.94,-16.44zm3.71 171.21c-15.45,0 -29.42,-3.81 -41.88,-11.4 -12.49,-7.62 -22.19,-18.24 -29.14,-31.82 -6.95,-13.62 -10.4,-28.86 -10.4,-45.76l0 -7.19c0,-17.46 3.38,-33.2 10.16,-47.17 6.77,-14 16.19,-24.97 28.29,-32.98 12.06,-8.01 25.15,-12 39.26,-12 22.05,0 39.51,7.52 52.46,22.58 12.91,15.03 19.37,35.6 19.37,61.67l0 11.25 -129.58 0 0 3.84c0,20.61 5.93,37.75 17.71,51.48 11.82,13.68 26.67,20.56 44.56,20.56 10.76,0 20.25,-1.97 28.47,-5.89 8.22,-3.92 15.7,-10.19 22.4,-18.8l12.59 9.56c-14.78,21.38 -36.19,32.07 -64.27,32.07z"/>
    <path class="fil4" d="M4835.11 1212.13l62.62 0c20,0 35.28,-4.77 45.83,-14.29 10.51,-9.53 15.76,-22.83 15.76,-39.83 0,-16.93 -5.22,-30.41 -15.69,-40.43 -10.48,-10.05 -25.33,-15.17 -44.56,-15.38l-63.96 0 0 109.93zm0 17.46l0 99.52 -20.64 0 0 -244.37 83.26 0c25.4,0 45.44,6.49 60.15,19.47 14.74,12.98 22.08,30.8 22.08,53.52 0,22.96 -7.09,40.67 -21.23,53.13 -14.15,12.49 -34.65,18.73 -61.53,18.73l-62.09 0z"/>
    <path class="fil4" d="M5107.07 1164.63c-4.27,-0.78 -8.79,-1.17 -13.58,-1.17 -12.56,0 -23.15,3.5 -31.82,10.48 -8.68,6.99 -14.86,17.15 -18.56,30.48l0 124.71 -19.97 0 0 -181.61 19.65 0 0.32 28.86c10.65,-21.49 27.69,-32.25 51.19,-32.25 5.61,0 10.02,0.74 13.26,2.19l-0.49 18.31z"/>
    <path class="fil4" d="M5146.22 1241.17c0,21.7 5.61,39.51 16.86,53.45 11.26,13.93 26,20.92 44.24,20.92 18.13,0 32.81,-6.99 44.06,-20.92 11.26,-13.94 16.87,-32.32 16.87,-55.14l0 -3.85c0,-13.9 -2.58,-26.56 -7.73,-38.1 -5.15,-11.53 -12.35,-20.46 -21.66,-26.77 -9.28,-6.32 -19.9,-9.49 -31.89,-9.49 -17.89,0 -32.49,7.02 -43.78,21.06 -11.33,14.04 -16.97,32.42 -16.97,55.14l0 3.7zm-20.14 -5.54c0,-17.46 3.38,-33.19 10.16,-47.16 6.77,-14.01 16.33,-24.87 28.71,-32.64 12.35,-7.79 26.35,-11.67 42.02,-11.67 24.16,0 43.78,8.46 58.77,25.43 14.99,16.94 22.47,39.41 22.47,67.38l0 4.2c0,17.57 -3.38,33.37 -10.16,47.41 -6.77,14.05 -16.3,24.88 -28.61,32.5 -12.31,7.58 -26.35,11.39 -42.12,11.39 -24.06,0 -43.6,-8.47 -58.67,-25.44 -15.06,-16.93 -22.57,-39.4 -22.57,-67.38l0 -4.02z"/>
    <path class="fil4" d="M5343.65 1240.16c0,23.14 4.66,41.42 13.94,54.79 9.27,13.37 22.36,20.07 39.26,20.07 24.73,0 42.3,-10.9 52.71,-32.74l0 -85.26c-10.41,-23.6 -27.87,-35.42 -52.36,-35.42 -16.89,0 -30.05,6.63 -39.44,19.9 -9.42,13.26 -14.11,32.8 -14.11,58.66zm-20.32 -3.53c0,-28.18 6.32,-50.65 18.91,-67.38 12.56,-16.75 29.67,-25.11 51.26,-25.11 24.52,0 43.18,9.7 56.06,29.07l0 -101.92 19.96 0 0 257.81 -18.77 0 -0.84 -24.17c-12.88,18.38 -31.79,27.55 -56.73,27.55 -20.95,0 -37.82,-8.43 -50.62,-25.25 -12.81,-16.87 -19.23,-39.59 -19.23,-68.23l0 -2.37z"/>
    <path class="fil4" d="M5640.95 1306.13c-12.1,17.57 -31.4,26.35 -57.89,26.35 -19.37,0 -34.08,-5.64 -44.17,-16.86 -10.05,-11.26 -15.2,-27.91 -15.45,-49.96l0 -118.14 20 0 0 115.64c0,34.57 13.97,51.86 41.95,51.86 29.1,0 47.52,-12.03 55.21,-36.09l0 -131.41 20.14 0 0 181.61 -19.44 0 -0.35 -23z"/>
    <path class="fil4" d="M5781.81 1315.52c13.97,0 25.71,-3.95 35.17,-11.82 9.45,-7.9 14.57,-18.13 15.34,-30.65l19.3 0c-0.56,11.08 -4.02,21.16 -10.41,30.3 -6.35,9.14 -14.85,16.26 -25.43,21.42 -10.55,5.11 -21.87,7.69 -33.97,7.69 -23.85,0 -42.73,-8.26 -56.66,-24.84 -13.94,-16.54 -20.89,-38.81 -20.89,-66.78l0 -6.07c0,-17.88 3.14,-33.72 9.39,-47.48 6.28,-13.76 15.24,-24.41 26.95,-31.89 11.68,-7.52 25.37,-11.26 41.03,-11.26 19.93,0 36.33,5.93 49.28,17.78 12.91,11.89 19.83,27.48 20.71,46.85l-19.3 0c-0.88,-14.21 -5.99,-25.68 -15.34,-34.39 -9.35,-8.75 -21.13,-13.13 -35.35,-13.13 -18.13,0 -32.17,6.56 -42.19,19.65 -10.02,13.09 -15.03,31.44 -15.03,55.07l0 5.86c0,23.17 5.01,41.24 15.03,54.22 10.02,12.98 24.13,19.47 42.37,19.47z"/>
    <path class="fil4" d="M5924.68 1101.02l0 46.49 37.61 0 0 16.44 -37.61 0 0 121.18c0,10.06 1.84,17.57 5.47,22.47 3.64,4.98 9.7,7.41 18.2,7.41 3.36,0 8.79,-0.56 16.27,-1.66l0.84 16.3c-5.25,1.87 -12.41,2.82 -21.48,2.82 -13.76,0 -23.78,-3.98 -30.06,-11.99 -6.24,-8.01 -9.38,-19.79 -9.38,-35.35l0 -121.18 -33.41 0 0 -16.44 33.41 0 0 -46.49 20.14 0z"/>
    <path class="fil4" d="M6011.34 1241.17c0,21.7 5.61,39.51 16.86,53.45 11.25,13.93 26,20.92 44.24,20.92 18.13,0 32.81,-6.99 44.06,-20.92 11.25,-13.94 16.86,-32.32 16.86,-55.14l0 -3.85c0,-13.9 -2.57,-26.56 -7.72,-38.1 -5.15,-11.53 -12.35,-20.46 -21.66,-26.77 -9.28,-6.32 -19.9,-9.49 -31.9,-9.49 -17.88,0 -32.49,7.02 -43.78,21.06 -11.32,14.04 -16.96,32.42 -16.96,55.14l0 3.7zm-20.15 -5.54c0,-17.46 3.39,-33.19 10.16,-47.16 6.78,-14.01 16.34,-24.87 28.68,-32.64 12.39,-7.79 26.39,-11.67 42.05,-11.67 24.21,0 43.78,8.46 58.78,25.43 14.99,16.94 22.47,39.41 22.47,67.38l0 4.2c0,17.57 -3.39,33.37 -10.16,47.41 -6.77,14.05 -16.3,24.88 -28.61,32.5 -12.31,7.58 -26.35,11.39 -42.12,11.39 -24.06,0 -43.61,-8.47 -58.67,-25.44 -15.06,-16.93 -22.58,-39.4 -22.58,-67.38l0 -4.02z"/>
    <path class="fil4" d="M5198.73 360.89l24.34 0 -38.77 46.99 -17.64 -0.07 32.07 -46.92zm-80.75 169.87c0,21.69 5.65,39.54 16.9,53.44 11.22,13.94 25.96,20.92 44.2,20.92 18.14,0 32.85,-6.98 44.06,-20.92 11.26,-13.9 16.87,-32.28 16.87,-55.14l0 -3.84c0,-13.87 -2.54,-26.57 -7.69,-38.1 -5.15,-11.54 -12.39,-20.46 -21.66,-26.78 -9.28,-6.31 -19.94,-9.49 -31.9,-9.49 -17.92,0 -32.52,7.02 -43.81,21.06 -11.29,14.04 -16.97,32.42 -16.97,55.14l0 3.71zm-20.11 -5.54c0,-17.47 3.35,-33.16 10.13,-47.17 6.77,-13.97 16.33,-24.87 28.71,-32.63 12.35,-7.8 26.39,-11.68 42.05,-11.68 24.17,0 43.75,8.47 58.74,25.44 15,16.93 22.51,39.4 22.51,67.38l0 4.2c0,17.56 -3.39,33.37 -10.16,47.41 -6.77,14.04 -16.33,24.87 -28.61,32.49 -12.31,7.58 -26.35,11.39 -42.16,11.39 -24.06,0 -43.6,-8.46 -58.66,-25.43 -15.03,-16.93 -22.55,-39.41 -22.55,-67.38l0 -4.02z"/>
   </g>
  </g>
 </g>
</svg>
