<?xml version="1.0" encoding="UTF-8"?>
<!DOCTYPE svg PUBLIC "-//W3C//DTD SVG 1.1//EN" "http://www.w3.org/Graphics/SVG/1.1/DTD/svg11.dtd">
<!-- Creator: CorelDRAW -->
<svg xmlns="http://www.w3.org/2000/svg" xml:space="preserve" width="42.3332mm" height="16.9332mm" version="1.1" style="shape-rendering:geometricPrecision; text-rendering:geometricPrecision; image-rendering:optimizeQuality; fill-rule:evenodd; clip-rule:evenodd"
viewBox="0 0 4233.32 1693.32"
 xmlns:xlink="http://www.w3.org/1999/xlink"
 xmlns:xodm="http://www.corel.com/coreldraw/odm/2003">
 <defs>
  <style type="text/css">
   <![CDATA[
    .fil1 {fill:#005B17}
    .fil2 {fill:#00833F}
    .fil0 {fill:black;fill-rule:nonzero}
   ]]>
  </style>
 </defs>
 <g id="Capa_x0020_1">
  <metadata id="CorelCorpID_0Corel-Layer"/>
  <g id="_2136526743168">
   <g>
    <polygon class="fil0" points="2158.65,452 2301.81,765.06 2445.67,452 2710.29,452 2710.29,934.22 2565.69,934.22 2569.32,573.47 2544.73,573.47 2363.26,934.22 2241.1,934.22 2059.59,573.47 2033.59,573.47 2037.19,934.22 1892.59,934.22 1892.59,452 "/>
    <path class="fil0" d="M3117.91 564.07l-28.93 0 -93.24 182.92 215.41 0 -93.24 -182.92zm144.6 288.47l-318.84 0 -41.2 81.7 -167.75 0 255.2 -482.25 228.46 0 252.34 482.25 -167 0 -41.21 -81.7z"/>
    <path class="fil0" d="M3826.3 695.65c67.98,-0.74 70.87,-0.74 83.15,-7.94 13.72,-8.68 18.06,-21.7 18.06,-54.96 0,-34.72 -6.49,-49.15 -25.29,-55.67 -10.13,-3.6 -11.58,-3.6 -75.92,-4.34l-183.62 0 0 122.91 183.62 0zm-330.41 -243.63l330.41 0c91.12,0 104.1,0.7 130.88,4.34 91.09,13.72 117.12,52.77 117.12,176.39 0,106.99 -19.54,148.94 -77.4,169.89 -32.53,10.83 -65.05,13.76 -169.16,13.76l-185.06 0 0 117.83 -146.79 0 0 -482.21z"/>
    <path class="fil0" d="M2169.29 1171.54c0.35,13.37 0.7,18.62 0.7,22.15 0,37.92 -9.84,55.14 -35.84,63.61 -18.98,5.96 -44.63,8.08 -96.63,8.08 -91.75,0 -121.28,-2.83 -140.23,-13.73 -15.48,-8.78 -22.5,-21.76 -25.29,-45.68 -1.09,-10.55 -1.76,-29.85 -1.76,-59.73 0,-52.39 1.41,-71.72 6.66,-84.7 12.67,-31.61 38.32,-37.61 160.98,-37.61 62.54,0 84.31,2.47 100.5,10.91 20.04,10.19 27.06,27.41 27.06,65.01l0 11.57 -71.37 0c-0.67,-15.45 -1.41,-18.59 -5.61,-22.12 -5.25,-4.55 -25.99,-6.7 -71.01,-6.7 -44.59,0 -57.61,1.45 -64.63,7.06 -8.46,7.02 -11.25,20.74 -11.25,56.23 0,60.08 1.06,60.78 76.27,60.78 78.35,0 79.41,-0.35 79.76,-35.13l71.69 0z"/>
    <path class="fil0" d="M2256.02 1261.87l-62.19 0 0 -166.23 62.19 0 0 166.23zm0 -187.68l-62.19 0 0 -46.75 62.19 0 0 46.75z"/>
    <path class="fil0" d="M2344.56 1095.63l0 25.3 3.18 0c11.21,-21.45 30.19,-29.53 70.62,-29.53 39.72,0 60.11,5.64 74.86,20.74 15.1,15.81 18.27,28.47 18.27,74.16l0 75.56 -62.19 0 0 -75.56c0,-26.71 -1.06,-32.67 -7.76,-39.02 -6.67,-6.67 -18.59,-9.14 -41.81,-9.14 -22.86,0 -35.13,3.18 -42.54,10.9 -7.69,8.08 -9.1,15.84 -9.1,46.39l0 66.43 -62.23 0 0 -166.23 58.7 0z"/>
    <path class="fil0" d="M2621.08 1057.31l0 38.32 98.39 0 0 44.62 -98.39 0 0 48.51c0,18.27 0.35,20.71 3.17,24.94 3.14,5.64 9.46,8.08 21.42,8.08 12.66,0 19.68,-2.44 22.5,-8.43 2.09,-3.88 2.44,-5.26 2.44,-22.47l56.94 0c-0.71,31.6 -3.18,41.8 -12.63,54.11 -12.67,15.81 -31.65,21.1 -74.51,21.1 -39.72,0 -55.88,-3.53 -68.19,-15.49 -8.79,-8.78 -12.28,-17.92 -12.98,-36.9 -0.36,-2.79 -0.36,-11.22 -0.36,-24.94l0 -48.51 -32.7 0 0 -44.62 32.7 0 0 -38.32 62.2 0z"/>
    <path class="fil0" d="M2805.88 1209.14c0,13.37 9.49,17.21 42.9,17.21 43.92,0 56.23,-4.19 56.23,-18.97 0,-6.67 -3.88,-11.61 -10.9,-14.05 -3.88,-1.41 -13.73,-1.76 -40.08,-1.76 -37.96,0 -48.15,3.85 -48.15,17.57zm-55.53 -61.49c1.76,-24.27 9.84,-37.25 29.17,-46.74 14.4,-6.71 43.22,-9.85 93.14,-9.85 54.47,0 67.13,2.44 81.17,16.51 10.55,11.26 14.08,23.92 14.08,54.12l0 100.15 -59.76 0 0 -22.82 -2.47 0c-5.26,10.9 -11.93,16.86 -23.18,21.45 -10.19,4.2 -26,5.61 -66.43,5.61 -55.17,0 -72.39,-12.31 -72.39,-51.68 0,-29.88 11.26,-46.36 35.49,-52.71 15.1,-4.2 31.29,-5.26 76.98,-5.26 28.78,0 37.22,2.44 47.09,12.99l2.79 0 0 -8.79c0,-26 -4.9,-29.49 -42.51,-29.49 -44.63,0 -49.21,1.38 -50.94,16.51l-62.23 0z"/>
    <path class="fil0" d="M3055.34 1095.63l0 25.3 3.18 0c11.21,-21.45 30.19,-29.53 70.62,-29.53 39.72,0 60.12,5.64 74.86,20.74 15.1,15.81 18.28,28.47 18.28,74.16l0 75.56 -62.2 0 0 -75.56c0,-26.71 -1.06,-32.67 -7.76,-39.02 -6.67,-6.67 -18.59,-9.14 -41.8,-9.14 -22.86,0 -35.14,3.18 -42.55,10.9 -7.69,8.08 -9.1,15.84 -9.1,46.39l0 66.43 -62.23 0 0 -166.23 58.7 0z"/>
    <path class="fil0" d="M3308.67 1176.82c0,36.55 7.02,42.15 53.8,42.15 22.82,0 39.68,-2.78 46.7,-7.72 7.06,-4.59 9.49,-13.37 9.49,-32.67 0,-34.46 -8.08,-40.78 -52.35,-40.78 -49.21,0 -57.64,5.61 -57.64,39.02zm171.87 85.05l-58.7 0 0 -21.8 -3.18 0c-11.96,20.04 -28.43,26 -73.45,26 -44.97,0 -66.42,-4.55 -80.82,-17.57 -13.68,-12.63 -17.92,-29.53 -17.92,-70.98 0,-42.19 6.67,-62.19 24.24,-73.8 15.13,-9.84 32.35,-12.66 75.21,-12.66 43.57,0 58,5.61 69.96,26.7l2.43 0 0 -90.31 62.23 0 0 234.42z"/>
    <path class="fil0" d="M3572.52 1261.87l-62.2 0 0 -166.23 62.2 0 0 166.23zm0 -187.68l-62.2 0 0 -46.75 62.2 0 0 46.75z"/>
    <path class="fil0" d="M3661.08 1095.63l0 25.3 3.17 0c11.22,-21.45 30.2,-29.53 70.63,-29.53 39.72,0 60.11,5.64 74.86,20.74 15.1,15.81 18.27,28.47 18.27,74.16l0 75.56 -62.19 0 0 -75.56c0,-26.71 -1.06,-32.67 -7.76,-39.02 -6.67,-6.67 -18.6,-9.14 -41.81,-9.14 -22.86,0 -35.13,3.18 -42.54,10.9 -7.69,8.08 -9.1,15.84 -9.1,46.39l0 66.43 -62.23 0 0 -166.23 58.7 0z"/>
    <path class="fil0" d="M3913.69 1209.14c0,13.37 9.49,17.21 42.86,17.21 43.96,0 56.24,-4.19 56.24,-18.97 0,-6.67 -3.85,-11.61 -10.87,-14.05 -3.88,-1.41 -13.72,-1.76 -40.07,-1.76 -37.96,0 -48.16,3.85 -48.16,17.57zm-55.53 -61.49c1.77,-24.27 9.85,-37.25 29.18,-46.74 14.39,-6.71 43.21,-9.85 93.13,-9.85 54.47,0 67.14,2.44 81.18,16.51 10.54,11.26 14.07,23.92 14.07,54.12l0 100.15 -59.76 0 0 -22.82 -2.47 0c-5.25,10.9 -11.96,16.86 -23.18,21.45 -10.19,4.2 -26,5.61 -66.42,5.61 -55.18,0 -72.39,-12.31 -72.39,-51.68 0,-29.88 11.25,-46.36 35.49,-52.71 15.09,-4.2 31.29,-5.26 76.97,-5.26 28.79,0 37.22,2.44 47.1,12.99l2.78 0 0 -8.79c0,-26 -4.9,-29.49 -42.5,-29.49 -44.63,0 -49.22,1.38 -50.95,16.51l-62.23 0z"/>
   </g>
   <path class="fil1" d="M1348.26 557.67l-275.84 98.36c-53.48,-107.42 -152.19,-190.65 -272.77,-226.24 74.62,-67.31 171.07,-114.97 276.55,-133.88 116.8,57.47 212.51,150.57 272.06,261.76z"/>
   <path class="fil2" d="M515.56 846.66c0,-279.89 194.42,-517.49 459.67,-590.86 -58.77,-17.4 -122.1,-26.5 -186.13,-26.5 -347.41,0 -631.5,275.42 -631.5,617.36 0,341.99 284.09,617.36 631.5,617.36 64.03,0 127.36,-9.06 186.13,-26.45 -265.25,-73.42 -459.67,-310.98 -459.67,-590.91z"/>
   <path class="fil1" d="M1348.26 1135.68c-59.55,111.23 -155.26,204.26 -272.06,261.76 -105.48,-18.91 -201.93,-66.57 -276.55,-133.91 120.58,-35.56 219.29,-118.75 272.77,-226.2l275.84 98.35z"/>
  </g>
 </g>
</svg>
