<?xml version="1.0" encoding="UTF-8"?>
<svg id="Capa_1" xmlns="http://www.w3.org/2000/svg" version="1.1" viewBox="0 0 50 50">
  <!-- Generator: Adobe Illustrator 29.1.0, SVG Export Plug-In . SVG Version: 2.1.0 Build 142)  -->
  <defs>
    <style>
      .st0 {
        fill: #118753;
      }

      .st0, .st1 {
        fill-rule: evenodd;
      }
    </style>
  </defs>
  <g>
    <path class="st1" d="M3.95,22.55h9.57c.7,3.69,5.34,6.67,11.45,7.75-1.48.24-3.09.35-4.75.35-8.37,0-15.32-3.51-16.27-8.1h0ZM46.05,20.52h-9.62c-.71-3.64-5.34-6.62-11.39-7.69,1.42-.24,3.02-.42,4.69-.42,8.37,0,15.38,3.58,16.33,8.11Z"/>
    <path class="st1" d="M29.56,19.26l-2.11.75c-.41-.82-1.17-1.46-2.09-1.73.57-.52,1.31-.88,2.12-1.03.89.44,1.63,1.15,2.08,2h0ZM23.18,21.47c0-2.14,1.49-3.96,3.52-4.52-.45-.13-.93-.2-1.43-.2-2.66,0-4.84,2.11-4.84,4.73s2.18,4.73,4.84,4.73c.49,0,.98-.07,1.43-.2-2.03-.56-3.52-2.38-3.52-4.53h0ZM29.56,23.69c-.46.85-1.19,1.56-2.08,2-.81-.14-1.55-.51-2.12-1.03.92-.27,1.68-.91,2.09-1.73l2.11.75Z"/>
    <path class="st0" d="M46.13,22.55h-9.66c-.71,3.69-5.34,6.67-11.46,7.75,1.49.24,3.09.35,4.76.35,8.37,0,15.42-3.51,16.37-8.1h0ZM3.87,20.52h9.68c.7-3.64,5.34-6.62,11.45-7.69-1.48-.24-3.09-.42-4.75-.42-8.37,0-15.44,3.58-16.39,8.11Z"/>
  </g>
  <path class="st1" d="M4.57,35.3v-.04c0-.14-.05-.24-.14-.3-.1-.06-.25-.1-.45-.1h-.91c-.39,0-.64.04-.75.13-.11.09-.17.27-.17.56v.49c0,.25.06.43.18.52.12.09.37.14.73.14h.66c.36,0,.6-.03.71-.1.11-.07.17-.2.17-.38v-.04h1.15s0,.01,0,.03c0,.1,0,.18,0,.23,0,.23-.03.41-.09.56-.06.15-.15.27-.28.35-.12.08-.28.15-.48.18-.2.04-.5.05-.89.05h-1.27c-.39,0-.67-.02-.85-.06-.18-.04-.34-.11-.47-.2-.15-.11-.26-.25-.33-.41-.07-.16-.1-.37-.1-.62v-.96c0-.5.13-.86.38-1.06.25-.2.71-.3,1.37-.3h1.27c.41,0,.71.02.9.05.19.03.34.09.46.18.12.09.2.2.26.34.06.14.08.32.08.54,0,.05,0,.09,0,.12,0,.03,0,.05,0,.08h-1.14ZM7.71,37.55h-1.13v-3.52h1.13v3.52h0ZM13.69,37.55h-1.66l-2.22-2.56v2.56h-1.13v-3.52h1.68l2.21,2.58v-2.58h1.13v3.52h0ZM17,37.55h-1.13v-2.66h-1.55v-.86h4.24v.86h-1.55v2.66h0ZM20.3,36.11h1.43l-.72-1.25-.71,1.25h0ZM19.51,37.55l.36-.59h2.26l.36.59h1.24l-1.99-3.52h-1.45l-2.03,3.52h1.24ZM29.29,37.55h-1.66l-2.22-2.56v2.56h-1.13v-3.52h1.68l2.21,2.58v-2.58h1.13v3.52h0ZM33.09,34.89h-1.78v1.8h1.92c.24,0,.42-.05.53-.14.11-.09.17-.24.17-.44v-.62c0-.21-.07-.36-.2-.46-.14-.1-.35-.15-.63-.15h0ZM33.43,34.03c.57,0,.98.09,1.24.28.26.19.39.49.39.9v1.21c0,.39-.1.68-.31.86-.21.18-.53.27-.98.27h-3.59v-3.52h3.26ZM37.05,37.55h-1.13v-3.52h1.13v3.52h0ZM43.02,37.55h-1.66l-2.22-2.56v2.56h-1.13v-3.52h1.68l2.21,2.58v-2.58h1.13v3.52h0ZM45.56,36.11h1.43l-.72-1.25-.71,1.25h0ZM44.77,37.55h-1.24l2.03-3.52h1.45l1.99,3.52h-1.24l-.36-.59h-2.26l-.36.59h0Z"/>
</svg>