<?xml version="1.0" encoding="UTF-8"?>
<!DOCTYPE svg PUBLIC "-//W3C//DTD SVG 1.1//EN" "http://www.w3.org/Graphics/SVG/1.1/DTD/svg11.dtd">
<!-- Creator: CorelDRAW -->
<svg xmlns="http://www.w3.org/2000/svg" xml:space="preserve" width="42.3332mm" height="42.3332mm" version="1.1" style="shape-rendering:geometricPrecision; text-rendering:geometricPrecision; image-rendering:optimizeQuality; fill-rule:evenodd; clip-rule:evenodd"
viewBox="0 0 4233.32 4233.32"
 xmlns:xlink="http://www.w3.org/1999/xlink"
 xmlns:xodm="http://www.corel.com/coreldraw/odm/2003">
 <defs>
  <style type="text/css">
   <![CDATA[
    .fil0 {fill:#FEFEFE;fill-rule:nonzero}
   ]]>
  </style>
 </defs>
 <g id="Capa_x0020_1">
  <metadata id="CorelCorpID_0Corel-Layer"/>
  <path class="fil0" d="M1798.05 318.55c0,-175.93 142.63,-318.56 318.56,-318.56 175.93,0 318.56,142.63 318.56,318.56l0 1479.49 1479.58 0c175.94,0 318.57,142.64 318.57,318.57 0,175.93 -142.63,318.56 -318.57,318.56l-1479.58 0 0 1479.58c0,175.93 -142.63,318.57 -318.56,318.57 -175.93,0 -318.56,-142.64 -318.56,-318.57l0 -1479.58 -1479.5 0c-175.93,0 -318.56,-142.63 -318.56,-318.56 0,-175.93 142.63,-318.57 318.56,-318.57l1479.5 0 0 -1479.49z"/>
 </g>
</svg>
