<?xml version="1.0" encoding="UTF-8"?>
<!DOCTYPE svg PUBLIC "-//W3C//DTD SVG 1.1//EN" "http://www.w3.org/Graphics/SVG/1.1/DTD/svg11.dtd">
<!-- Creator: CorelDRAW -->
<svg xmlns="http://www.w3.org/2000/svg" xml:space="preserve" width="42.3332mm" height="42.3332mm" version="1.1" style="shape-rendering:geometricPrecision; text-rendering:geometricPrecision; image-rendering:optimizeQuality; fill-rule:evenodd; clip-rule:evenodd"
viewBox="0 0 4233.32 4233.32"
 xmlns:xlink="http://www.w3.org/1999/xlink"
 xmlns:xodm="http://www.corel.com/coreldraw/odm/2003">
 <defs>
  <style type="text/css">
   <![CDATA[
    .fil0 {fill:#787E87;fill-rule:nonzero}
   ]]>
  </style>
 </defs>
 <g id="Capa_x0020_1">
  <metadata id="CorelCorpID_0Corel-Layer"/>
  <g id="_2104546799984">
   <g>
    <path class="fil0" d="M3521.05 2905.85l-451.08 0 0 -886.87c0,-104.22 -18.33,-179.88 -54.98,-226.98 -36.65,-47.1 -85.04,-70.65 -145.18,-70.65 -31.96,0 -63.91,7.02 -95.86,21.04 -31.95,14.04 -62.96,33.58 -93.03,58.63 -30.07,25.06 -56.86,54.62 -80.35,88.68 -23.49,34.08 -41.82,71.17 -54.97,111.25l0 904.9 -451.09 0 0 -1578.32 405.97 0 0 264.56c54.51,-94.2 131.58,-166.86 231.18,-217.96 99.62,-51.12 214.26,-76.67 343.94,-76.67 95.86,0 172.92,18.54 231.18,55.61 58.27,37.09 103.38,85.19 135.33,144.31 31.96,59.14 53.09,123.76 63.43,193.92 10.34,70.14 15.51,138.28 15.51,204.42l0 1010.13z"/>
    <path class="fil0" d="M1394.49 2935.91c-125.93,0 -249.97,-21.54 -372.14,-64.63 -122.16,-43.1 -225.54,-105.71 -310.12,-187.9l160.7 -294.62c90.21,66.15 178.08,117.24 263.6,153.32 85.51,36.08 167.74,54.12 246.68,54.12 58.27,0 103.37,-11.03 135.32,-33.07 31.95,-22.05 47.93,-54.11 47.93,-96.2 0,-42.09 -20.21,-75.66 -60.61,-100.72 -40.41,-25.04 -111.36,-51.61 -212.85,-79.65 -99.62,-30.08 -183.72,-59.13 -252.33,-87.2 -68.6,-28.06 -124.51,-59.12 -167.74,-93.19 -43.22,-34.08 -74.24,-73.15 -93.03,-117.26 -18.8,-44.09 -28.19,-96.19 -28.19,-156.31 0,-80.19 15.03,-153.32 45.1,-219.47 30.07,-66.14 71.42,-122.26 124.04,-168.36 52.64,-46.09 115.12,-82.18 187.49,-108.23 72.35,-26.05 150.82,-39.08 235.41,-39.08 110.89,0 214.72,16.03 311.52,48.1 96.79,32.06 190.29,90.19 280.5,174.37l-174.78 288.61c-84.59,-62.13 -159.76,-107.22 -225.54,-135.29 -65.78,-28.05 -129.69,-42.09 -191.7,-42.09 -48.88,0 -90.23,10.53 -124.05,31.57 -33.84,21.04 -50.75,54.62 -50.75,100.71 0,44.11 18.33,77.16 54.98,99.21 36.65,22.04 104.77,46.1 204.39,72.15 105.25,30.07 194.06,60.12 266.41,90.2 72.36,30.07 131.1,63.63 176.2,100.71 45.11,37.07 78,79.66 98.68,127.76 20.67,48.12 31,105.22 31,171.37 0,156.33 -54.49,280.58 -163.51,372.79 -109,92.19 -256.54,138.28 -442.61,138.28z"/>
   </g>
   <path class="fil0" d="M624.17 0l2985.04 0c170.96,0 326.8,70.15 440.17,183.22l1.13 1.13c112.81,113.38 182.81,269.06 182.81,439.82l0 2985.04c0,170.96 -70.15,326.8 -183.22,440.18l-1.12 1.12c-113.38,112.82 -269.02,182.81 -439.77,182.81l-2985.04 0c-170.96,0 -326.85,-70.15 -440.23,-183.22l-1.13 -1.12c-112.81,-113.38 -182.81,-269.02 -182.81,-439.77l0 -2985.04c0,-170.96 70.15,-326.85 183.22,-440.23l1.13 -1.12c113.38,-112.82 269.06,-182.82 439.82,-182.82zm2985.04 383.21l-2985.04 0c-66.53,0 -126.77,26.87 -170.04,70.2l-0.72 0.72c-43.33,43.27 -70.2,103.51 -70.2,170.04l0 2985.04c0,66.52 26.92,126.76 70.2,169.99l0.72 0.71c43.27,43.33 103.51,70.21 170.04,70.21l2985.04 0c66.52,0 126.76,-26.93 169.99,-70.21l0.71 -0.71c43.28,-43.23 70.21,-103.47 70.21,-169.99l0 -2985.04c0,-66.53 -26.88,-126.77 -70.21,-170.04l-0.71 -0.72c-43.23,-43.28 -103.47,-70.2 -169.99,-70.2z"/>
  </g>
 </g>
</svg>
