<?xml version="1.0" encoding="UTF-8"?>
<!DOCTYPE svg PUBLIC "-//W3C//DTD SVG 1.1//EN" "http://www.w3.org/Graphics/SVG/1.1/DTD/svg11.dtd">
<!-- Creator: CorelDRAW -->
<svg xmlns="http://www.w3.org/2000/svg" xml:space="preserve" width="42.3332mm" height="42.3332mm" version="1.1" style="shape-rendering:geometricPrecision; text-rendering:geometricPrecision; image-rendering:optimizeQuality; fill-rule:evenodd; clip-rule:evenodd"
viewBox="0 0 4233.32 4233.32"
 xmlns:xlink="http://www.w3.org/1999/xlink"
 xmlns:xodm="http://www.corel.com/coreldraw/odm/2003">
 <defs>
  <style type="text/css">
   <![CDATA[
    .fil0 {fill:white;fill-rule:nonzero}
   ]]>
  </style>
 </defs>
 <g id="Capa_x0020_1">
  <metadata id="CorelCorpID_0Corel-Layer"/>
  <path class="fil0" d="M2682.87 3254.41l0 176.42 412.71 0 0 412.66 176.42 0 0 -412.66 412.7 0 0 -176.42 -412.7 0 0 -412.75 -176.42 0 0 412.75 -412.71 0zm668.47 -945.59c60.78,10.22 119.58,25.53 176.42,45.65 0,-726.22 -0.23,-1451.98 -0.23,-2178.29 0,-97.26 -78.93,-176.19 -176.19,-176.19l-2998.76 0c-97.27,0 -176.2,78.93 -176.2,176.19l0 3704.43c0,97.27 78.93,176.2 176.2,176.2 678.46,0 1356.6,0.13 2035.11,0.13 -48.59,-54.13 -91.81,-113.07 -128.53,-176.37 -635.56,0 -1271.02,0.04 -1906.58,0.04l0 -3704.43 2998.76 0c0,710.86 0,1421.77 0,2132.64zm-2557.78 -1515.23l0 176.42 2116.79 0 0 -176.42 -2116.79 0zm0 1234.81l0 176.37 352.8 0 0 -176.37 -352.8 0zm617.41 0l0 176.37 1499.38 0 0 -176.37 -1499.38 0zm1763.99 440.98c-485.12,0 -882.02,396.89 -882.02,881.97 0,485.12 396.9,881.97 882.02,881.97 485.08,0 881.97,-396.85 881.97,-881.97 0,-485.08 -396.89,-881.97 -881.97,-881.97zm-2381.4 88.19l0 176.42 352.8 0 0 -176.42 -352.8 0zm617.41 0l0 176.42 905.58 0c46.66,-64.77 100.15,-123.85 159.88,-176.42l-1065.46 0zm1763.99 88.19c388.05,0 705.55,317.55 705.55,705.59 0,388.09 -317.5,705.59 -705.55,705.59 -388.09,0 -705.59,-317.5 -705.59,-705.59 0,-388.04 317.5,-705.59 705.59,-705.59zm-2381.4 440.98l0 176.42 352.8 0 0 -176.42 -352.8 0zm617.41 0l0 176.42 710.04 0c5.05,-60.5 15.41,-119.22 30.16,-176.42l-740.2 0z"/>
 </g>
</svg>
